%TF.GenerationSoftware,KiCad,Pcbnew,(6.0.9)*%
%TF.CreationDate,2022-12-16T17:53:14+00:00*%
%TF.ProjectId,PocketSplit-V1,506f636b-6574-4537-906c-69742d56312e,1.0*%
%TF.SameCoordinates,Original*%
%TF.FileFunction,Soldermask,Top*%
%TF.FilePolarity,Negative*%
%FSLAX46Y46*%
G04 Gerber Fmt 4.6, Leading zero omitted, Abs format (unit mm)*
G04 Created by KiCad (PCBNEW (6.0.9)) date 2022-12-16 17:53:14*
%MOMM*%
%LPD*%
G01*
G04 APERTURE LIST*
%ADD10C,2.000000*%
%ADD11C,1.524000*%
%ADD12C,1.200000*%
%ADD13R,1.000000X2.100000*%
%ADD14R,1.500000X1.800000*%
G04 APERTURE END LIST*
D10*
%TO.C,SW28*%
X75490000Y-83094000D03*
X81990000Y-83094000D03*
X75490000Y-87594000D03*
X81990000Y-87594000D03*
%TD*%
%TO.C,SW3*%
X45264000Y-46768000D03*
X51764000Y-46768000D03*
X45264000Y-51268000D03*
X51764000Y-51268000D03*
%TD*%
%TO.C,SW10*%
X54714000Y-54170000D03*
X61214000Y-54170000D03*
X54714000Y-58670000D03*
X61214000Y-58670000D03*
%TD*%
%TO.C,SW21*%
X45264000Y-73438000D03*
X51764000Y-73438000D03*
X45264000Y-77938000D03*
X51764000Y-77938000D03*
%TD*%
%TO.C,SW12*%
X73204000Y-56682000D03*
X79704000Y-56682000D03*
X73204000Y-61182000D03*
X79704000Y-61182000D03*
%TD*%
%TO.C,SW17*%
X64060000Y-64548000D03*
X70560000Y-64548000D03*
X64060000Y-69048000D03*
X70560000Y-69048000D03*
%TD*%
%TO.C,SW11*%
X64060000Y-55658000D03*
X70560000Y-55658000D03*
X64060000Y-60158000D03*
X70560000Y-60158000D03*
%TD*%
%TO.C,SW13*%
X26468000Y-66076000D03*
X32968000Y-66076000D03*
X26468000Y-70576000D03*
X32968000Y-70576000D03*
%TD*%
%TO.C,SW7*%
X26520000Y-57190000D03*
X33020000Y-57190000D03*
X26520000Y-61690000D03*
X33020000Y-61690000D03*
%TD*%
%TO.C,SW24*%
X73204000Y-74458000D03*
X79704000Y-74458000D03*
X73204000Y-78958000D03*
X79704000Y-78958000D03*
%TD*%
%TO.C,SW27*%
X64568000Y-82078000D03*
X71068000Y-82078000D03*
X64568000Y-86578000D03*
X71068000Y-86578000D03*
%TD*%
%TO.C,SW26*%
X54968000Y-82078000D03*
X61468000Y-82078000D03*
X54968000Y-86578000D03*
X61468000Y-86578000D03*
%TD*%
%TO.C,SW6*%
X73406000Y-47788000D03*
X79906000Y-47788000D03*
X73406000Y-52288000D03*
X79906000Y-52288000D03*
%TD*%
%TO.C,SW14*%
X35866000Y-65568000D03*
X42366000Y-65568000D03*
X35866000Y-70068000D03*
X42366000Y-70068000D03*
%TD*%
%TO.C,SW16*%
X54714000Y-63060000D03*
X61214000Y-63060000D03*
X54714000Y-67560000D03*
X61214000Y-67560000D03*
%TD*%
%TO.C,SW4*%
X54714000Y-45284000D03*
X61214000Y-45284000D03*
X54714000Y-49784000D03*
X61214000Y-49784000D03*
%TD*%
D11*
%TO.C,MCU1*%
X100127535Y-46407745D03*
X83588720Y-45212000D03*
X83588720Y-47752000D03*
X100127535Y-48947745D03*
X100127535Y-51487745D03*
X83588720Y-50292000D03*
X100127535Y-54027745D03*
X83588720Y-52832000D03*
X83588720Y-55372000D03*
X100127535Y-56567745D03*
X100127535Y-59107745D03*
X83588720Y-57912000D03*
X100127535Y-61647745D03*
X83588720Y-60452000D03*
X83588720Y-62992000D03*
X100127535Y-64187745D03*
X100127535Y-66727745D03*
X83588720Y-65532000D03*
X100127535Y-69267745D03*
X83588720Y-68072000D03*
X83588720Y-70612000D03*
X100127535Y-71807745D03*
X83588720Y-73152000D03*
X100127535Y-74347745D03*
X84887535Y-74347745D03*
X98828720Y-73152000D03*
X84887535Y-71807745D03*
X98828720Y-70612000D03*
X98828720Y-68072000D03*
X84887535Y-69267745D03*
X98828720Y-65532000D03*
X84887535Y-66727745D03*
X84887535Y-64187745D03*
X98828720Y-62992000D03*
X98828720Y-60452000D03*
X84887535Y-61647745D03*
X84887535Y-59107745D03*
X98828720Y-57912000D03*
X98828720Y-55372000D03*
X84887535Y-56567745D03*
X84887535Y-54027745D03*
X98828720Y-52832000D03*
X98828720Y-50292000D03*
X84887535Y-51487745D03*
X98828720Y-47752000D03*
X84887535Y-48947745D03*
X84887535Y-46407745D03*
X98828720Y-45212000D03*
%TD*%
D10*
%TO.C,SW9*%
X45264000Y-55662000D03*
X51764000Y-55662000D03*
X45264000Y-60162000D03*
X51764000Y-60162000D03*
%TD*%
%TO.C,SW25*%
X45264000Y-82078000D03*
X51764000Y-82078000D03*
X45264000Y-86578000D03*
X51764000Y-86578000D03*
%TD*%
%TO.C,SW29*%
X84634000Y-80808000D03*
X91134000Y-80808000D03*
X84634000Y-85308000D03*
X91134000Y-85308000D03*
%TD*%
%TO.C,SW2*%
X35866000Y-47792000D03*
X42366000Y-47792000D03*
X35866000Y-52292000D03*
X42366000Y-52292000D03*
%TD*%
%TO.C,SW20*%
X35866000Y-74462000D03*
X42366000Y-74462000D03*
X35866000Y-78962000D03*
X42366000Y-78962000D03*
%TD*%
%TO.C,SW5*%
X64060000Y-46772000D03*
X70560000Y-46772000D03*
X64060000Y-51272000D03*
X70560000Y-51272000D03*
%TD*%
%TO.C,SW19*%
X26520000Y-74970000D03*
X33020000Y-74970000D03*
X26520000Y-79470000D03*
X33020000Y-79470000D03*
%TD*%
%TO.C,SW1*%
X26520000Y-48300000D03*
X33020000Y-48300000D03*
X26520000Y-52800000D03*
X33020000Y-52800000D03*
%TD*%
%TO.C,SW23*%
X64060000Y-73438000D03*
X70560000Y-73438000D03*
X64060000Y-77938000D03*
X70560000Y-77938000D03*
%TD*%
%TO.C,SW18*%
X73204000Y-65568000D03*
X79704000Y-65568000D03*
X73204000Y-70068000D03*
X79704000Y-70068000D03*
%TD*%
D12*
%TO.C,J1*%
X104281000Y-45084500D03*
X104281000Y-52084500D03*
X106031000Y-52084500D03*
X106031000Y-45084500D03*
D13*
X102181000Y-53884500D03*
X108131000Y-53884500D03*
X108131000Y-49884500D03*
X102181000Y-49884500D03*
X102181000Y-46884500D03*
X108131000Y-46884500D03*
X103931000Y-55384500D03*
X106381000Y-55384500D03*
%TD*%
D10*
%TO.C,SW22*%
X54714000Y-71954000D03*
X61214000Y-71954000D03*
X54714000Y-76454000D03*
X61214000Y-76454000D03*
%TD*%
%TO.C,RST1*%
X105410000Y-65226000D03*
X105410000Y-58726000D03*
%TD*%
%TO.C,SW15*%
X45264000Y-64552000D03*
X51764000Y-64552000D03*
X45264000Y-69052000D03*
X51764000Y-69052000D03*
%TD*%
%TO.C,SW8*%
X35814000Y-56722000D03*
X42314000Y-56722000D03*
X35814000Y-61222000D03*
X42314000Y-61222000D03*
%TD*%
D14*
%TO.C,D29*%
X87884000Y-81358000D03*
X87884000Y-84758000D03*
%TD*%
%TO.C,D6*%
X76656000Y-48338000D03*
X76656000Y-51738000D03*
%TD*%
%TO.C,D12*%
X76454000Y-57232000D03*
X76454000Y-60632000D03*
%TD*%
%TO.C,D15*%
X48514000Y-65102000D03*
X48514000Y-68502000D03*
%TD*%
%TO.C,D28*%
X78740000Y-83644000D03*
X78740000Y-87044000D03*
%TD*%
%TO.C,D7*%
X29770000Y-57740000D03*
X29770000Y-61140000D03*
%TD*%
%TO.C,D18*%
X76454000Y-66118000D03*
X76454000Y-69518000D03*
%TD*%
%TO.C,D10*%
X57964000Y-54720000D03*
X57964000Y-58120000D03*
%TD*%
%TO.C,D2*%
X39116000Y-48342000D03*
X39116000Y-51742000D03*
%TD*%
%TO.C,D3*%
X48514000Y-47318000D03*
X48514000Y-50718000D03*
%TD*%
%TO.C,D19*%
X29770000Y-75520000D03*
X29770000Y-78920000D03*
%TD*%
%TO.C,D26*%
X58218000Y-82628000D03*
X58218000Y-86028000D03*
%TD*%
%TO.C,D27*%
X67818000Y-82628000D03*
X67818000Y-86028000D03*
%TD*%
%TO.C,D22*%
X57964000Y-72504000D03*
X57964000Y-75904000D03*
%TD*%
%TO.C,D9*%
X48514000Y-56212000D03*
X48514000Y-59612000D03*
%TD*%
%TO.C,D13*%
X29718000Y-66626000D03*
X29718000Y-70026000D03*
%TD*%
%TO.C,D24*%
X76454000Y-75008000D03*
X76454000Y-78408000D03*
%TD*%
%TO.C,D16*%
X57964000Y-63610000D03*
X57964000Y-67010000D03*
%TD*%
%TO.C,D21*%
X48514000Y-73988000D03*
X48514000Y-77388000D03*
%TD*%
%TO.C,D23*%
X67310000Y-73988000D03*
X67310000Y-77388000D03*
%TD*%
%TO.C,D17*%
X67310000Y-65098000D03*
X67310000Y-68498000D03*
%TD*%
%TO.C,D11*%
X67310000Y-56208000D03*
X67310000Y-59608000D03*
%TD*%
%TO.C,D20*%
X39116000Y-75012000D03*
X39116000Y-78412000D03*
%TD*%
%TO.C,D8*%
X39064000Y-57272000D03*
X39064000Y-60672000D03*
%TD*%
%TO.C,D5*%
X67310000Y-47322000D03*
X67310000Y-50722000D03*
%TD*%
%TO.C,D1*%
X29770000Y-48850000D03*
X29770000Y-52250000D03*
%TD*%
%TO.C,D4*%
X57964000Y-45834000D03*
X57964000Y-49234000D03*
%TD*%
%TO.C,D14*%
X39116000Y-66118000D03*
X39116000Y-69518000D03*
%TD*%
%TO.C,D25*%
X48514000Y-82628000D03*
X48514000Y-86028000D03*
%TD*%
M02*
