%TF.GenerationSoftware,KiCad,Pcbnew,(6.0.9)*%
%TF.CreationDate,2022-12-16T21:27:41+00:00*%
%TF.ProjectId,PocketSplit-V1,506f636b-6574-4537-906c-69742d56312e,1.0*%
%TF.SameCoordinates,Original*%
%TF.FileFunction,Copper,L2,Bot*%
%TF.FilePolarity,Positive*%
%FSLAX46Y46*%
G04 Gerber Fmt 4.6, Leading zero omitted, Abs format (unit mm)*
G04 Created by KiCad (PCBNEW (6.0.9)) date 2022-12-16 21:27:41*
%MOMM*%
%LPD*%
G01*
G04 APERTURE LIST*
%TA.AperFunction,ComponentPad*%
%ADD10C,2.000000*%
%TD*%
%TA.AperFunction,ComponentPad*%
%ADD11C,1.524000*%
%TD*%
%TA.AperFunction,ComponentPad*%
%ADD12R,1.000000X2.100000*%
%TD*%
%TA.AperFunction,ComponentPad*%
%ADD13R,1.500000X1.800000*%
%TD*%
%TA.AperFunction,ViaPad*%
%ADD14C,0.500000*%
%TD*%
%TA.AperFunction,Conductor*%
%ADD15C,0.150000*%
%TD*%
G04 APERTURE END LIST*
D10*
%TO.P,SW28,1*%
%TO.N,COL-L-5*%
X75490000Y-83094000D03*
%TO.P,SW28,2*%
%TO.N,unconnected-(SW28-Pad2)*%
X81990000Y-83094000D03*
%TO.P,SW28,3*%
%TO.N,Net-(D28-Pad2)*%
X75490000Y-87594000D03*
%TO.P,SW28,4*%
%TO.N,unconnected-(SW28-Pad4)*%
X81990000Y-87594000D03*
%TD*%
%TO.P,SW3,1*%
%TO.N,COL-L-3*%
X45264000Y-46768000D03*
%TO.P,SW3,2*%
%TO.N,unconnected-(SW3-Pad2)*%
X51764000Y-46768000D03*
%TO.P,SW3,3*%
%TO.N,Net-(D3-Pad2)*%
X45264000Y-51268000D03*
%TO.P,SW3,4*%
%TO.N,unconnected-(SW3-Pad4)*%
X51764000Y-51268000D03*
%TD*%
%TO.P,SW10,1*%
%TO.N,COL-L-4*%
X54714000Y-54170000D03*
%TO.P,SW10,2*%
%TO.N,unconnected-(SW10-Pad2)*%
X61214000Y-54170000D03*
%TO.P,SW10,3*%
%TO.N,Net-(D10-Pad2)*%
X54714000Y-58670000D03*
%TO.P,SW10,4*%
%TO.N,unconnected-(SW10-Pad4)*%
X61214000Y-58670000D03*
%TD*%
%TO.P,SW21,1*%
%TO.N,COL-L-3*%
X45264000Y-73438000D03*
%TO.P,SW21,2*%
%TO.N,unconnected-(SW21-Pad2)*%
X51764000Y-73438000D03*
%TO.P,SW21,3*%
%TO.N,Net-(D21-Pad2)*%
X45264000Y-77938000D03*
%TO.P,SW21,4*%
%TO.N,unconnected-(SW21-Pad4)*%
X51764000Y-77938000D03*
%TD*%
%TO.P,SW12,1*%
%TO.N,COL-L-6*%
X73204000Y-56682000D03*
%TO.P,SW12,2*%
%TO.N,unconnected-(SW12-Pad2)*%
X79704000Y-56682000D03*
%TO.P,SW12,3*%
%TO.N,Net-(D12-Pad2)*%
X73204000Y-61182000D03*
%TO.P,SW12,4*%
%TO.N,unconnected-(SW12-Pad4)*%
X79704000Y-61182000D03*
%TD*%
%TO.P,SW17,1*%
%TO.N,COL-L-5*%
X64060000Y-64548000D03*
%TO.P,SW17,2*%
%TO.N,unconnected-(SW17-Pad2)*%
X70560000Y-64548000D03*
%TO.P,SW17,3*%
%TO.N,Net-(D17-Pad2)*%
X64060000Y-69048000D03*
%TO.P,SW17,4*%
%TO.N,unconnected-(SW17-Pad4)*%
X70560000Y-69048000D03*
%TD*%
%TO.P,SW11,1*%
%TO.N,COL-L-5*%
X64060000Y-55658000D03*
%TO.P,SW11,2*%
%TO.N,unconnected-(SW11-Pad2)*%
X70560000Y-55658000D03*
%TO.P,SW11,3*%
%TO.N,Net-(D11-Pad2)*%
X64060000Y-60158000D03*
%TO.P,SW11,4*%
%TO.N,unconnected-(SW11-Pad4)*%
X70560000Y-60158000D03*
%TD*%
%TO.P,SW13,1*%
%TO.N,COL-L-1*%
X26468000Y-66076000D03*
%TO.P,SW13,2*%
%TO.N,unconnected-(SW13-Pad2)*%
X32968000Y-66076000D03*
%TO.P,SW13,3*%
%TO.N,Net-(D13-Pad2)*%
X26468000Y-70576000D03*
%TO.P,SW13,4*%
%TO.N,unconnected-(SW13-Pad4)*%
X32968000Y-70576000D03*
%TD*%
%TO.P,SW7,1*%
%TO.N,COL-L-1*%
X26520000Y-57190000D03*
%TO.P,SW7,2*%
%TO.N,unconnected-(SW7-Pad2)*%
X33020000Y-57190000D03*
%TO.P,SW7,3*%
%TO.N,Net-(D7-Pad2)*%
X26520000Y-61690000D03*
%TO.P,SW7,4*%
%TO.N,unconnected-(SW7-Pad4)*%
X33020000Y-61690000D03*
%TD*%
%TO.P,SW24,1*%
%TO.N,COL-L-6*%
X73204000Y-74458000D03*
%TO.P,SW24,2*%
%TO.N,unconnected-(SW24-Pad2)*%
X79704000Y-74458000D03*
%TO.P,SW24,3*%
%TO.N,Net-(D24-Pad2)*%
X73204000Y-78958000D03*
%TO.P,SW24,4*%
%TO.N,unconnected-(SW24-Pad4)*%
X79704000Y-78958000D03*
%TD*%
%TO.P,SW27,1*%
%TO.N,COL-L-4*%
X64568000Y-82078000D03*
%TO.P,SW27,2*%
%TO.N,unconnected-(SW27-Pad2)*%
X71068000Y-82078000D03*
%TO.P,SW27,3*%
%TO.N,Net-(D27-Pad2)*%
X64568000Y-86578000D03*
%TO.P,SW27,4*%
%TO.N,unconnected-(SW27-Pad4)*%
X71068000Y-86578000D03*
%TD*%
%TO.P,SW26,4*%
%TO.N,unconnected-(SW26-Pad4)*%
X61468000Y-86578000D03*
%TO.P,SW26,3*%
%TO.N,Net-(D26-Pad2)*%
X54968000Y-86578000D03*
%TO.P,SW26,2*%
%TO.N,unconnected-(SW26-Pad2)*%
X61468000Y-82078000D03*
%TO.P,SW26,1*%
%TO.N,COL-L-3*%
X54968000Y-82078000D03*
%TD*%
%TO.P,SW6,1*%
%TO.N,COL-L-6*%
X73406000Y-47788000D03*
%TO.P,SW6,2*%
%TO.N,unconnected-(SW6-Pad2)*%
X79906000Y-47788000D03*
%TO.P,SW6,3*%
%TO.N,Net-(D6-Pad2)*%
X73406000Y-52288000D03*
%TO.P,SW6,4*%
%TO.N,unconnected-(SW6-Pad4)*%
X79906000Y-52288000D03*
%TD*%
%TO.P,SW14,1*%
%TO.N,COL-L-2*%
X35866000Y-65568000D03*
%TO.P,SW14,2*%
%TO.N,unconnected-(SW14-Pad2)*%
X42366000Y-65568000D03*
%TO.P,SW14,3*%
%TO.N,Net-(D14-Pad2)*%
X35866000Y-70068000D03*
%TO.P,SW14,4*%
%TO.N,unconnected-(SW14-Pad4)*%
X42366000Y-70068000D03*
%TD*%
%TO.P,SW16,1*%
%TO.N,COL-L-4*%
X54714000Y-63060000D03*
%TO.P,SW16,2*%
%TO.N,unconnected-(SW16-Pad2)*%
X61214000Y-63060000D03*
%TO.P,SW16,3*%
%TO.N,Net-(D16-Pad2)*%
X54714000Y-67560000D03*
%TO.P,SW16,4*%
%TO.N,unconnected-(SW16-Pad4)*%
X61214000Y-67560000D03*
%TD*%
%TO.P,SW4,1*%
%TO.N,COL-L-4*%
X54714000Y-45284000D03*
%TO.P,SW4,2*%
%TO.N,unconnected-(SW4-Pad2)*%
X61214000Y-45284000D03*
%TO.P,SW4,3*%
%TO.N,Net-(D4-Pad2)*%
X54714000Y-49784000D03*
%TO.P,SW4,4*%
%TO.N,unconnected-(SW4-Pad4)*%
X61214000Y-49784000D03*
%TD*%
D11*
%TO.P,MCU1,1,TX0/PD3*%
%TO.N,unconnected-(MCU1-Pad1)*%
X100127535Y-46407745D03*
X83588720Y-45212000D03*
%TO.P,MCU1,2,RX1/PD2*%
%TO.N,DATA*%
X83588720Y-47752000D03*
X100127535Y-48947745D03*
%TO.P,MCU1,3,GND*%
%TO.N,GND*%
X100127535Y-51487745D03*
X83588720Y-50292000D03*
%TO.P,MCU1,4,GND*%
X100127535Y-54027745D03*
X83588720Y-52832000D03*
%TO.P,MCU1,5,2/PD1*%
%TO.N,ROW-L-5*%
X83588720Y-55372000D03*
X100127535Y-56567745D03*
%TO.P,MCU1,6,3/PD0*%
%TO.N,ROW-L-3*%
X100127535Y-59107745D03*
X83588720Y-57912000D03*
%TO.P,MCU1,7,4/PD4*%
%TO.N,ROW-L-1*%
X100127535Y-61647745D03*
X83588720Y-60452000D03*
%TO.P,MCU1,8,5/PC6*%
%TO.N,unconnected-(MCU1-Pad8)*%
X83588720Y-62992000D03*
X100127535Y-64187745D03*
%TO.P,MCU1,9,6/PD7*%
%TO.N,unconnected-(MCU1-Pad9)*%
X100127535Y-66727745D03*
X83588720Y-65532000D03*
%TO.P,MCU1,10,7/PE6*%
%TO.N,COL-L-1*%
X100127535Y-69267745D03*
X83588720Y-68072000D03*
%TO.P,MCU1,11,8/PB4*%
%TO.N,COL-L-3*%
X83588720Y-70612000D03*
X100127535Y-71807745D03*
%TO.P,MCU1,12,9/PB5*%
%TO.N,COL-L-5*%
X83588720Y-73152000D03*
X100127535Y-74347745D03*
%TO.P,MCU1,13,10/PB6*%
%TO.N,COL-L-6*%
X84887535Y-74347745D03*
X98828720Y-73152000D03*
%TO.P,MCU1,14,16/PB2*%
%TO.N,COL-L-4*%
X84887535Y-71807745D03*
X98828720Y-70612000D03*
%TO.P,MCU1,15,14/PB3*%
%TO.N,COL-L-2*%
X98828720Y-68072000D03*
X84887535Y-69267745D03*
%TO.P,MCU1,16,15/PB1*%
%TO.N,unconnected-(MCU1-Pad16)*%
X98828720Y-65532000D03*
X84887535Y-66727745D03*
%TO.P,MCU1,17,A0/PF7*%
%TO.N,unconnected-(MCU1-Pad17)*%
X84887535Y-64187745D03*
X98828720Y-62992000D03*
%TO.P,MCU1,18,A1/PF6*%
%TO.N,unconnected-(MCU1-Pad18)*%
X98828720Y-60452000D03*
X84887535Y-61647745D03*
%TO.P,MCU1,19,A2/PF5*%
%TO.N,ROW-L-2*%
X84887535Y-59107745D03*
X98828720Y-57912000D03*
%TO.P,MCU1,20,A3/PF4*%
%TO.N,ROW-L-4*%
X98828720Y-55372000D03*
X84887535Y-56567745D03*
%TO.P,MCU1,21,VCC*%
%TO.N,5v*%
X84887535Y-54027745D03*
X98828720Y-52832000D03*
%TO.P,MCU1,22,RST*%
%TO.N,RST*%
X98828720Y-50292000D03*
X84887535Y-51487745D03*
%TO.P,MCU1,23,GND*%
%TO.N,GND*%
X98828720Y-47752000D03*
X84887535Y-48947745D03*
%TO.P,MCU1,24,RAW*%
%TO.N,unconnected-(MCU1-Pad24)*%
X84887535Y-46407745D03*
X98828720Y-45212000D03*
%TD*%
D10*
%TO.P,SW9,1*%
%TO.N,COL-L-3*%
X45264000Y-55662000D03*
%TO.P,SW9,2*%
%TO.N,unconnected-(SW9-Pad2)*%
X51764000Y-55662000D03*
%TO.P,SW9,3*%
%TO.N,Net-(D9-Pad2)*%
X45264000Y-60162000D03*
%TO.P,SW9,4*%
%TO.N,unconnected-(SW9-Pad4)*%
X51764000Y-60162000D03*
%TD*%
%TO.P,SW25,4*%
%TO.N,unconnected-(SW25-Pad4)*%
X51764000Y-86578000D03*
%TO.P,SW25,3*%
%TO.N,Net-(D25-Pad2)*%
X45264000Y-86578000D03*
%TO.P,SW25,2*%
%TO.N,unconnected-(SW25-Pad2)*%
X51764000Y-82078000D03*
%TO.P,SW25,1*%
%TO.N,COL-L-2*%
X45264000Y-82078000D03*
%TD*%
%TO.P,SW29,1*%
%TO.N,COL-L-6*%
X84634000Y-80808000D03*
%TO.P,SW29,2*%
%TO.N,unconnected-(SW29-Pad2)*%
X91134000Y-80808000D03*
%TO.P,SW29,3*%
%TO.N,Net-(D29-Pad2)*%
X84634000Y-85308000D03*
%TO.P,SW29,4*%
%TO.N,unconnected-(SW29-Pad4)*%
X91134000Y-85308000D03*
%TD*%
%TO.P,SW2,1*%
%TO.N,COL-L-2*%
X35866000Y-47792000D03*
%TO.P,SW2,2*%
%TO.N,unconnected-(SW2-Pad2)*%
X42366000Y-47792000D03*
%TO.P,SW2,3*%
%TO.N,Net-(D2-Pad2)*%
X35866000Y-52292000D03*
%TO.P,SW2,4*%
%TO.N,unconnected-(SW2-Pad4)*%
X42366000Y-52292000D03*
%TD*%
%TO.P,SW20,1*%
%TO.N,COL-L-2*%
X35866000Y-74462000D03*
%TO.P,SW20,2*%
%TO.N,unconnected-(SW20-Pad2)*%
X42366000Y-74462000D03*
%TO.P,SW20,3*%
%TO.N,Net-(D20-Pad2)*%
X35866000Y-78962000D03*
%TO.P,SW20,4*%
%TO.N,unconnected-(SW20-Pad4)*%
X42366000Y-78962000D03*
%TD*%
%TO.P,SW5,1*%
%TO.N,COL-L-5*%
X64060000Y-46772000D03*
%TO.P,SW5,2*%
%TO.N,unconnected-(SW5-Pad2)*%
X70560000Y-46772000D03*
%TO.P,SW5,3*%
%TO.N,Net-(D5-Pad2)*%
X64060000Y-51272000D03*
%TO.P,SW5,4*%
%TO.N,unconnected-(SW5-Pad4)*%
X70560000Y-51272000D03*
%TD*%
%TO.P,SW19,1*%
%TO.N,COL-L-1*%
X26520000Y-74970000D03*
%TO.P,SW19,2*%
%TO.N,unconnected-(SW19-Pad2)*%
X33020000Y-74970000D03*
%TO.P,SW19,3*%
%TO.N,Net-(D19-Pad2)*%
X26520000Y-79470000D03*
%TO.P,SW19,4*%
%TO.N,unconnected-(SW19-Pad4)*%
X33020000Y-79470000D03*
%TD*%
%TO.P,SW1,1*%
%TO.N,COL-L-1*%
X26520000Y-48300000D03*
%TO.P,SW1,2*%
%TO.N,unconnected-(SW1-Pad2)*%
X33020000Y-48300000D03*
%TO.P,SW1,3*%
%TO.N,Net-(D1-Pad2)*%
X26520000Y-52800000D03*
%TO.P,SW1,4*%
%TO.N,unconnected-(SW1-Pad4)*%
X33020000Y-52800000D03*
%TD*%
%TO.P,SW23,1*%
%TO.N,COL-L-5*%
X64060000Y-73438000D03*
%TO.P,SW23,2*%
%TO.N,unconnected-(SW23-Pad2)*%
X70560000Y-73438000D03*
%TO.P,SW23,3*%
%TO.N,Net-(D23-Pad2)*%
X64060000Y-77938000D03*
%TO.P,SW23,4*%
%TO.N,unconnected-(SW23-Pad4)*%
X70560000Y-77938000D03*
%TD*%
%TO.P,SW18,1*%
%TO.N,COL-L-6*%
X73204000Y-65568000D03*
%TO.P,SW18,2*%
%TO.N,unconnected-(SW18-Pad2)*%
X79704000Y-65568000D03*
%TO.P,SW18,3*%
%TO.N,Net-(D18-Pad2)*%
X73204000Y-70068000D03*
%TO.P,SW18,4*%
%TO.N,unconnected-(SW18-Pad4)*%
X79704000Y-70068000D03*
%TD*%
D12*
%TO.P,J1,1*%
%TO.N,5v*%
X102435000Y-52868500D03*
X108385000Y-52868500D03*
%TO.P,J1,2*%
%TO.N,GND*%
X108385000Y-48868500D03*
X102435000Y-48868500D03*
%TO.P,J1,3*%
%TO.N,DATA*%
X102435000Y-45868500D03*
X108385000Y-45868500D03*
%TO.P,J1,4*%
%TO.N,unconnected-(J1-Pad4)*%
X104185000Y-54368500D03*
X106635000Y-54368500D03*
%TD*%
D10*
%TO.P,SW22,1*%
%TO.N,COL-L-4*%
X54714000Y-71954000D03*
%TO.P,SW22,2*%
%TO.N,unconnected-(SW22-Pad2)*%
X61214000Y-71954000D03*
%TO.P,SW22,3*%
%TO.N,Net-(D22-Pad2)*%
X54714000Y-76454000D03*
%TO.P,SW22,4*%
%TO.N,unconnected-(SW22-Pad4)*%
X61214000Y-76454000D03*
%TD*%
%TO.P,RST1,1,1*%
%TO.N,GND*%
X105410000Y-68782000D03*
%TO.P,RST1,2,2*%
%TO.N,RST*%
X105410000Y-62282000D03*
%TD*%
%TO.P,SW15,1*%
%TO.N,COL-L-3*%
X45264000Y-64552000D03*
%TO.P,SW15,2*%
%TO.N,unconnected-(SW15-Pad2)*%
X51764000Y-64552000D03*
%TO.P,SW15,3*%
%TO.N,Net-(D15-Pad2)*%
X45264000Y-69052000D03*
%TO.P,SW15,4*%
%TO.N,unconnected-(SW15-Pad4)*%
X51764000Y-69052000D03*
%TD*%
%TO.P,SW8,1*%
%TO.N,COL-L-2*%
X35814000Y-56722000D03*
%TO.P,SW8,2*%
%TO.N,unconnected-(SW8-Pad2)*%
X42314000Y-56722000D03*
%TO.P,SW8,3*%
%TO.N,Net-(D8-Pad2)*%
X35814000Y-61222000D03*
%TO.P,SW8,4*%
%TO.N,unconnected-(SW8-Pad4)*%
X42314000Y-61222000D03*
%TD*%
D13*
%TO.P,D29,1,K*%
%TO.N,ROW-L-5*%
X87884000Y-81358000D03*
%TO.P,D29,2,A*%
%TO.N,Net-(D29-Pad2)*%
X87884000Y-84758000D03*
%TD*%
%TO.P,D6,1,K*%
%TO.N,ROW-L-1*%
X76656000Y-48338000D03*
%TO.P,D6,2,A*%
%TO.N,Net-(D6-Pad2)*%
X76656000Y-51738000D03*
%TD*%
%TO.P,D12,1,K*%
%TO.N,ROW-L-2*%
X76454000Y-57232000D03*
%TO.P,D12,2,A*%
%TO.N,Net-(D12-Pad2)*%
X76454000Y-60632000D03*
%TD*%
%TO.P,D15,1,K*%
%TO.N,ROW-L-3*%
X48514000Y-65102000D03*
%TO.P,D15,2,A*%
%TO.N,Net-(D15-Pad2)*%
X48514000Y-68502000D03*
%TD*%
%TO.P,D28,1,K*%
%TO.N,ROW-L-5*%
X78740000Y-83644000D03*
%TO.P,D28,2,A*%
%TO.N,Net-(D28-Pad2)*%
X78740000Y-87044000D03*
%TD*%
%TO.P,D7,1,K*%
%TO.N,ROW-L-2*%
X29770000Y-57740000D03*
%TO.P,D7,2,A*%
%TO.N,Net-(D7-Pad2)*%
X29770000Y-61140000D03*
%TD*%
%TO.P,D18,1,K*%
%TO.N,ROW-L-3*%
X76454000Y-66118000D03*
%TO.P,D18,2,A*%
%TO.N,Net-(D18-Pad2)*%
X76454000Y-69518000D03*
%TD*%
%TO.P,D10,1,K*%
%TO.N,ROW-L-2*%
X57964000Y-54720000D03*
%TO.P,D10,2,A*%
%TO.N,Net-(D10-Pad2)*%
X57964000Y-58120000D03*
%TD*%
%TO.P,D2,1,K*%
%TO.N,ROW-L-1*%
X39116000Y-48342000D03*
%TO.P,D2,2,A*%
%TO.N,Net-(D2-Pad2)*%
X39116000Y-51742000D03*
%TD*%
%TO.P,D3,1,K*%
%TO.N,ROW-L-1*%
X48514000Y-47318000D03*
%TO.P,D3,2,A*%
%TO.N,Net-(D3-Pad2)*%
X48514000Y-50718000D03*
%TD*%
%TO.P,D19,1,K*%
%TO.N,ROW-L-4*%
X29770000Y-75520000D03*
%TO.P,D19,2,A*%
%TO.N,Net-(D19-Pad2)*%
X29770000Y-78920000D03*
%TD*%
%TO.P,D26,1,K*%
%TO.N,ROW-L-5*%
X58218000Y-82628000D03*
%TO.P,D26,2,A*%
%TO.N,Net-(D26-Pad2)*%
X58218000Y-86028000D03*
%TD*%
%TO.P,D27,1,K*%
%TO.N,ROW-L-5*%
X67818000Y-82628000D03*
%TO.P,D27,2,A*%
%TO.N,Net-(D27-Pad2)*%
X67818000Y-86028000D03*
%TD*%
%TO.P,D22,1,K*%
%TO.N,ROW-L-4*%
X57964000Y-72504000D03*
%TO.P,D22,2,A*%
%TO.N,Net-(D22-Pad2)*%
X57964000Y-75904000D03*
%TD*%
%TO.P,D9,1,K*%
%TO.N,ROW-L-2*%
X48514000Y-56212000D03*
%TO.P,D9,2,A*%
%TO.N,Net-(D9-Pad2)*%
X48514000Y-59612000D03*
%TD*%
%TO.P,D13,1,K*%
%TO.N,ROW-L-3*%
X29718000Y-66626000D03*
%TO.P,D13,2,A*%
%TO.N,Net-(D13-Pad2)*%
X29718000Y-70026000D03*
%TD*%
%TO.P,D24,1,K*%
%TO.N,ROW-L-4*%
X76454000Y-75008000D03*
%TO.P,D24,2,A*%
%TO.N,Net-(D24-Pad2)*%
X76454000Y-78408000D03*
%TD*%
%TO.P,D16,1,K*%
%TO.N,ROW-L-3*%
X57964000Y-63610000D03*
%TO.P,D16,2,A*%
%TO.N,Net-(D16-Pad2)*%
X57964000Y-67010000D03*
%TD*%
%TO.P,D21,1,K*%
%TO.N,ROW-L-4*%
X48514000Y-73988000D03*
%TO.P,D21,2,A*%
%TO.N,Net-(D21-Pad2)*%
X48514000Y-77388000D03*
%TD*%
%TO.P,D23,1,K*%
%TO.N,ROW-L-4*%
X67310000Y-73988000D03*
%TO.P,D23,2,A*%
%TO.N,Net-(D23-Pad2)*%
X67310000Y-77388000D03*
%TD*%
%TO.P,D17,1,K*%
%TO.N,ROW-L-3*%
X67310000Y-65098000D03*
%TO.P,D17,2,A*%
%TO.N,Net-(D17-Pad2)*%
X67310000Y-68498000D03*
%TD*%
%TO.P,D11,1,K*%
%TO.N,ROW-L-2*%
X67310000Y-56208000D03*
%TO.P,D11,2,A*%
%TO.N,Net-(D11-Pad2)*%
X67310000Y-59608000D03*
%TD*%
%TO.P,D20,1,K*%
%TO.N,ROW-L-4*%
X39116000Y-75012000D03*
%TO.P,D20,2,A*%
%TO.N,Net-(D20-Pad2)*%
X39116000Y-78412000D03*
%TD*%
%TO.P,D8,1,K*%
%TO.N,ROW-L-2*%
X39064000Y-57272000D03*
%TO.P,D8,2,A*%
%TO.N,Net-(D8-Pad2)*%
X39064000Y-60672000D03*
%TD*%
%TO.P,D5,1,K*%
%TO.N,ROW-L-1*%
X67310000Y-47322000D03*
%TO.P,D5,2,A*%
%TO.N,Net-(D5-Pad2)*%
X67310000Y-50722000D03*
%TD*%
%TO.P,D1,1,K*%
%TO.N,ROW-L-1*%
X29770000Y-48850000D03*
%TO.P,D1,2,A*%
%TO.N,Net-(D1-Pad2)*%
X29770000Y-52250000D03*
%TD*%
%TO.P,D4,1,K*%
%TO.N,ROW-L-1*%
X57964000Y-45834000D03*
%TO.P,D4,2,A*%
%TO.N,Net-(D4-Pad2)*%
X57964000Y-49234000D03*
%TD*%
%TO.P,D14,1,K*%
%TO.N,ROW-L-3*%
X39116000Y-66118000D03*
%TO.P,D14,2,A*%
%TO.N,Net-(D14-Pad2)*%
X39116000Y-69518000D03*
%TD*%
%TO.P,D25,1,K*%
%TO.N,ROW-L-5*%
X48514000Y-82628000D03*
%TO.P,D25,2,A*%
%TO.N,Net-(D25-Pad2)*%
X48514000Y-86028000D03*
%TD*%
D14*
%TO.N,GND*%
X97027999Y-50289300D03*
X97025319Y-52826889D03*
%TO.N,ROW-L-1*%
X97028000Y-60452000D03*
X89154000Y-60452000D03*
%TO.N,ROW-L-2*%
X88376217Y-59107745D03*
%TO.N,ROW-L-3*%
X97028000Y-57912000D03*
X87630000Y-57912000D03*
%TO.N,ROW-L-4*%
X86851500Y-56567745D03*
%TO.N,ROW-L-5*%
X97028000Y-55372000D03*
X86106000Y-55372000D03*
%TO.N,COL-L-1*%
X84328000Y-76454000D03*
X97028000Y-68072000D03*
X93472000Y-68072000D03*
X36830000Y-76962000D03*
X93472000Y-75184000D03*
%TO.N,COL-L-2*%
X94234000Y-69267745D03*
X48514000Y-80772000D03*
X84836000Y-77216000D03*
X94234000Y-75184000D03*
%TO.N,COL-L-3*%
X94996000Y-70612000D03*
X61722000Y-80264000D03*
X85344000Y-77978000D03*
X97019148Y-70603148D03*
X94996000Y-75174008D03*
%TO.N,COL-L-4*%
X95758000Y-71807745D03*
X95758000Y-75184000D03*
X69088000Y-80772000D03*
X85842922Y-78740000D03*
%TO.N,COL-L-5*%
X86360000Y-79502000D03*
X82042000Y-81534000D03*
X97028000Y-73152000D03*
X96520000Y-75184000D03*
%TO.N,unconnected-(MCU1-Pad9)*%
X97025319Y-65526889D03*
%TO.N,unconnected-(MCU1-Pad8)*%
X97027999Y-62989300D03*
%TO.N,unconnected-(MCU1-Pad1)*%
X97155000Y-45212000D03*
%TO.N,DATA*%
X97028000Y-47752000D03*
%TD*%
D15*
%TO.N,COL-L-1*%
X73660000Y-76454000D02*
X84328000Y-76454000D01*
X71879000Y-78235000D02*
X73660000Y-76454000D01*
X59718000Y-80518000D02*
X60847000Y-79389000D01*
X45033833Y-79756000D02*
X49764463Y-79756000D01*
X49764463Y-79756000D02*
X50526463Y-80518000D01*
X50526463Y-80518000D02*
X59718000Y-80518000D01*
X71879000Y-78997000D02*
X71879000Y-78235000D01*
X42239833Y-76962000D02*
X45033833Y-79756000D01*
X60847000Y-79389000D02*
X71487000Y-79389000D01*
X71487000Y-79389000D02*
X71879000Y-78997000D01*
X36830000Y-76962000D02*
X42239833Y-76962000D01*
%TO.N,COL-L-2*%
X83566000Y-77216000D02*
X84836000Y-77216000D01*
X80010000Y-80772000D02*
X83566000Y-77216000D01*
X72898000Y-80772000D02*
X80010000Y-80772000D01*
X71865000Y-79739000D02*
X72898000Y-80772000D01*
X60991974Y-79739000D02*
X71865000Y-79739000D01*
X59704974Y-81026000D02*
X60991974Y-79739000D01*
X56896000Y-81026000D02*
X59704974Y-81026000D01*
X51562000Y-83820000D02*
X55372000Y-83820000D01*
X55372000Y-83820000D02*
X56896000Y-82296000D01*
X56896000Y-82296000D02*
X56896000Y-81026000D01*
X49539000Y-81797000D02*
X51562000Y-83820000D01*
X49539000Y-81453000D02*
X49539000Y-81797000D01*
X49195000Y-81453000D02*
X49539000Y-81453000D01*
X48514000Y-80772000D02*
X49195000Y-81453000D01*
%TO.N,ROW-L-5*%
X56010000Y-84836000D02*
X58218000Y-82628000D01*
X50722000Y-84836000D02*
X56010000Y-84836000D01*
X48514000Y-82628000D02*
X50722000Y-84836000D01*
%TO.N,RST*%
X101346000Y-58674000D02*
X104954000Y-62282000D01*
X100584000Y-50292000D02*
X101346000Y-51054000D01*
X104954000Y-62282000D02*
X105410000Y-62282000D01*
X98828720Y-50292000D02*
X100584000Y-50292000D01*
X101346000Y-51054000D02*
X101346000Y-58674000D01*
%TO.N,Net-(D1-Pad2)*%
X29770000Y-52250000D02*
X27070000Y-52250000D01*
X27070000Y-52250000D02*
X26520000Y-52800000D01*
%TO.N,Net-(D7-Pad2)*%
X29770000Y-61140000D02*
X27070000Y-61140000D01*
X27070000Y-61140000D02*
X26520000Y-61690000D01*
%TO.N,Net-(D13-Pad2)*%
X27018000Y-70026000D02*
X26468000Y-70576000D01*
X29718000Y-70026000D02*
X27018000Y-70026000D01*
%TO.N,Net-(D14-Pad2)*%
X36416000Y-69518000D02*
X35866000Y-70068000D01*
X39116000Y-69518000D02*
X36416000Y-69518000D01*
%TO.N,Net-(D15-Pad2)*%
X48514000Y-68502000D02*
X45814000Y-68502000D01*
X45814000Y-68502000D02*
X45264000Y-69052000D01*
%TO.N,Net-(D16-Pad2)*%
X55264000Y-67010000D02*
X54714000Y-67560000D01*
X57964000Y-67010000D02*
X55264000Y-67010000D01*
%TO.N,Net-(D17-Pad2)*%
X67310000Y-68498000D02*
X64610000Y-68498000D01*
X64610000Y-68498000D02*
X64060000Y-69048000D01*
%TO.N,Net-(D19-Pad2)*%
X29770000Y-78920000D02*
X27070000Y-78920000D01*
X27070000Y-78920000D02*
X26520000Y-79470000D01*
%TO.N,Net-(D20-Pad2)*%
X36416000Y-78412000D02*
X35866000Y-78962000D01*
X39116000Y-78412000D02*
X36416000Y-78412000D01*
%TO.N,Net-(D21-Pad2)*%
X48514000Y-77388000D02*
X45814000Y-77388000D01*
X45814000Y-77388000D02*
X45264000Y-77938000D01*
%TO.N,Net-(D22-Pad2)*%
X57964000Y-75904000D02*
X55264000Y-75904000D01*
X55264000Y-75904000D02*
X54714000Y-76454000D01*
%TO.N,Net-(D23-Pad2)*%
X67310000Y-77388000D02*
X64610000Y-77388000D01*
X64610000Y-77388000D02*
X64060000Y-77938000D01*
%TO.N,Net-(D24-Pad2)*%
X76454000Y-78408000D02*
X73754000Y-78408000D01*
X73754000Y-78408000D02*
X73204000Y-78958000D01*
%TO.N,Net-(D25-Pad2)*%
X45814000Y-86028000D02*
X45264000Y-86578000D01*
X48514000Y-86028000D02*
X45814000Y-86028000D01*
%TO.N,GND*%
X100074790Y-51562000D02*
X98300699Y-51562000D01*
X98300430Y-54102000D02*
X97025319Y-52826889D01*
X98300699Y-51562000D02*
X97027999Y-50289300D01*
X100074790Y-54102000D02*
X98300430Y-54102000D01*
%TO.N,ROW-L-1*%
X81912416Y-42542000D02*
X86866396Y-42542000D01*
X48514000Y-47318000D02*
X46765000Y-49067000D01*
X100074790Y-61722000D02*
X98298000Y-61722000D01*
X89154717Y-45212000D02*
X89154717Y-60451283D01*
X75931000Y-49063000D02*
X69051000Y-49063000D01*
X66585000Y-48047000D02*
X60177000Y-48047000D01*
X55755000Y-48043000D02*
X49239000Y-48043000D01*
X60177000Y-48047000D02*
X57964000Y-45834000D01*
X69051000Y-49063000D02*
X67310000Y-47322000D01*
X80496000Y-45466000D02*
X80496000Y-43958416D01*
X49239000Y-48043000D02*
X48514000Y-47318000D01*
X46765000Y-49067000D02*
X39841000Y-49067000D01*
X30495000Y-49575000D02*
X29770000Y-48850000D01*
X67310000Y-47322000D02*
X66585000Y-48047000D01*
X39116000Y-48342000D02*
X37883000Y-49575000D01*
X86866396Y-42542000D02*
X89154000Y-44829604D01*
X76656000Y-48338000D02*
X75931000Y-49063000D01*
X89154000Y-44829604D02*
X89154000Y-45212000D01*
X76656000Y-46534000D02*
X77724000Y-45466000D01*
X77724000Y-45466000D02*
X80474000Y-45466000D01*
X98298000Y-61722000D02*
X97028000Y-60452000D01*
X76656000Y-48338000D02*
X76656000Y-46534000D01*
X37883000Y-49575000D02*
X30495000Y-49575000D01*
X57964000Y-45834000D02*
X55755000Y-48043000D01*
X39841000Y-49067000D02*
X39116000Y-48342000D01*
X80496000Y-43958416D02*
X81912416Y-42542000D01*
%TO.N,ROW-L-2*%
X80682396Y-45938000D02*
X80946000Y-45674396D01*
X86072000Y-42892000D02*
X88392000Y-45212000D01*
X55289000Y-57395000D02*
X57964000Y-54720000D01*
X66585000Y-56933000D02*
X67310000Y-56208000D01*
X79538000Y-45938000D02*
X80682396Y-45938000D01*
X69059000Y-57957000D02*
X75729000Y-57957000D01*
X39789000Y-57997000D02*
X46729000Y-57997000D01*
X75729000Y-57957000D02*
X76454000Y-57232000D01*
X49697000Y-57395000D02*
X55289000Y-57395000D01*
X29770000Y-57740000D02*
X30495000Y-58465000D01*
X82198812Y-42892000D02*
X86072000Y-42892000D01*
X46729000Y-57997000D02*
X48514000Y-56212000D01*
X76454000Y-57232000D02*
X76454000Y-56520000D01*
X78486000Y-46990000D02*
X79538000Y-45938000D01*
X60177000Y-56933000D02*
X66585000Y-56933000D01*
X39064000Y-57272000D02*
X39789000Y-57997000D01*
X80946000Y-44144812D02*
X82198812Y-42892000D01*
X78486000Y-54488000D02*
X78486000Y-46990000D01*
X57964000Y-54720000D02*
X60177000Y-56933000D01*
X80946000Y-45674396D02*
X80946000Y-44144812D01*
X88392000Y-59091962D02*
X88376217Y-59107745D01*
X67310000Y-56208000D02*
X69059000Y-57957000D01*
X37871000Y-58465000D02*
X39064000Y-57272000D01*
X88392000Y-45212000D02*
X88392000Y-59091962D01*
X48514000Y-56212000D02*
X49697000Y-57395000D01*
X30495000Y-58465000D02*
X37871000Y-58465000D01*
X76454000Y-56520000D02*
X78486000Y-54488000D01*
%TO.N,ROW-L-3*%
X81396000Y-67564000D02*
X81396000Y-44331208D01*
X100074790Y-59182000D02*
X98298000Y-59182000D01*
X66585000Y-65823000D02*
X67310000Y-65098000D01*
X75729000Y-66843000D02*
X76454000Y-66118000D01*
X98298000Y-59182000D02*
X97028000Y-57912000D01*
X46773000Y-66843000D02*
X48514000Y-65102000D01*
X69055000Y-66843000D02*
X75729000Y-66843000D01*
X81396000Y-44331208D02*
X82485208Y-43242000D01*
X77900000Y-67564000D02*
X81396000Y-67564000D01*
X76454000Y-66118000D02*
X77900000Y-67564000D01*
X67310000Y-65098000D02*
X69055000Y-66843000D01*
X55747000Y-65827000D02*
X57964000Y-63610000D01*
X37883000Y-67351000D02*
X39116000Y-66118000D01*
X30443000Y-67351000D02*
X37883000Y-67351000D01*
X82485208Y-43242000D02*
X85660000Y-43242000D01*
X85660000Y-43242000D02*
X87630000Y-45212000D01*
X39116000Y-66118000D02*
X39841000Y-66843000D01*
X48514000Y-65102000D02*
X49239000Y-65827000D01*
X57964000Y-63610000D02*
X60177000Y-65823000D01*
X49239000Y-65827000D02*
X55747000Y-65827000D01*
X39841000Y-66843000D02*
X46773000Y-66843000D01*
X87630000Y-57912000D02*
X87630000Y-45209925D01*
X29718000Y-66626000D02*
X30443000Y-67351000D01*
X60177000Y-65823000D02*
X66585000Y-65823000D01*
%TO.N,ROW-L-4*%
X39116000Y-75012000D02*
X39841000Y-75737000D01*
X46765000Y-75737000D02*
X48514000Y-73988000D01*
X57964000Y-72504000D02*
X59067123Y-72504000D01*
X59067123Y-72504000D02*
X61276123Y-74713000D01*
X82771604Y-43592000D02*
X85376396Y-43592000D01*
X39841000Y-75737000D02*
X46765000Y-75737000D01*
X75729000Y-75733000D02*
X76454000Y-75008000D01*
X81846000Y-44517604D02*
X82771604Y-43592000D01*
X49239000Y-74713000D02*
X55755000Y-74713000D01*
X81846000Y-70354000D02*
X81846000Y-44517604D01*
X67310000Y-73988000D02*
X69055000Y-75733000D01*
X85376396Y-43592000D02*
X86868000Y-45083604D01*
X48514000Y-73988000D02*
X49239000Y-74713000D01*
X37883000Y-76245000D02*
X39116000Y-75012000D01*
X29770000Y-75520000D02*
X30495000Y-76245000D01*
X66585000Y-74713000D02*
X67310000Y-73988000D01*
X79017000Y-73183000D02*
X81846000Y-70354000D01*
X61276123Y-74713000D02*
X66585000Y-74713000D01*
X69055000Y-75733000D02*
X75729000Y-75733000D01*
X55755000Y-74713000D02*
X57964000Y-72504000D01*
X30495000Y-76245000D02*
X37883000Y-76245000D01*
X76454000Y-75008000D02*
X78279000Y-73183000D01*
X86868000Y-45083604D02*
X86868000Y-56551245D01*
X78279000Y-73183000D02*
X79017000Y-73183000D01*
%TO.N,ROW-L-5*%
X83058000Y-43942000D02*
X82296000Y-44704000D01*
X82296000Y-44704000D02*
X82296000Y-74422000D01*
X82296000Y-74422000D02*
X83566000Y-75692000D01*
X70493000Y-85303000D02*
X77081000Y-85303000D01*
X86164000Y-55314000D02*
X86164000Y-45270000D01*
X100074790Y-56642000D02*
X98298000Y-56642000D01*
X86106000Y-55372000D02*
X86164000Y-55314000D01*
X86164000Y-45270000D02*
X84836000Y-43942000D01*
X84836000Y-43942000D02*
X83058000Y-43942000D01*
X83769877Y-84369000D02*
X86780877Y-81358000D01*
X86780877Y-81358000D02*
X87884000Y-81358000D01*
X87884000Y-78232000D02*
X87884000Y-81358000D01*
X67093000Y-83353000D02*
X67818000Y-82628000D01*
X58943000Y-83353000D02*
X67093000Y-83353000D01*
X58218000Y-82628000D02*
X58943000Y-83353000D01*
X83566000Y-75692000D02*
X85344000Y-75692000D01*
X78740000Y-83644000D02*
X79465000Y-84369000D01*
X98298000Y-56642000D02*
X97028000Y-55372000D01*
X85344000Y-75692000D02*
X87884000Y-78232000D01*
X67818000Y-82628000D02*
X70493000Y-85303000D01*
X79465000Y-84369000D02*
X83769877Y-84369000D01*
X77081000Y-85303000D02*
X78740000Y-83644000D01*
%TO.N,Net-(D2-Pad2)*%
X39116000Y-51742000D02*
X36416000Y-51742000D01*
X36416000Y-51742000D02*
X35866000Y-52292000D01*
%TO.N,Net-(D3-Pad2)*%
X48514000Y-50718000D02*
X45814000Y-50718000D01*
X45814000Y-50718000D02*
X45264000Y-51268000D01*
%TO.N,Net-(D4-Pad2)*%
X55264000Y-49234000D02*
X54714000Y-49784000D01*
X57964000Y-49234000D02*
X55264000Y-49234000D01*
%TO.N,Net-(D5-Pad2)*%
X67310000Y-50722000D02*
X64610000Y-50722000D01*
X64610000Y-50722000D02*
X64060000Y-51272000D01*
%TO.N,Net-(D6-Pad2)*%
X76656000Y-51738000D02*
X73956000Y-51738000D01*
X73956000Y-51738000D02*
X73406000Y-52288000D01*
%TO.N,Net-(D8-Pad2)*%
X39064000Y-60672000D02*
X36364000Y-60672000D01*
X36364000Y-60672000D02*
X35814000Y-61222000D01*
%TO.N,Net-(D9-Pad2)*%
X48514000Y-59612000D02*
X45814000Y-59612000D01*
X45814000Y-59612000D02*
X45264000Y-60162000D01*
%TO.N,Net-(D10-Pad2)*%
X57964000Y-58120000D02*
X55264000Y-58120000D01*
X55264000Y-58120000D02*
X54714000Y-58670000D01*
%TO.N,Net-(D11-Pad2)*%
X67310000Y-59608000D02*
X64610000Y-59608000D01*
X64610000Y-59608000D02*
X64060000Y-60158000D01*
%TO.N,Net-(D12-Pad2)*%
X76454000Y-60632000D02*
X73754000Y-60632000D01*
X73754000Y-60632000D02*
X73204000Y-61182000D01*
%TO.N,Net-(D18-Pad2)*%
X76454000Y-69518000D02*
X73754000Y-69518000D01*
X73754000Y-69518000D02*
X73204000Y-70068000D01*
%TO.N,Net-(D26-Pad2)*%
X55518000Y-86028000D02*
X54968000Y-86578000D01*
X58218000Y-86028000D02*
X55518000Y-86028000D01*
%TO.N,Net-(D27-Pad2)*%
X67818000Y-86028000D02*
X65118000Y-86028000D01*
X65118000Y-86028000D02*
X64568000Y-86578000D01*
%TO.N,Net-(D28-Pad2)*%
X76040000Y-87044000D02*
X75490000Y-87594000D01*
X78740000Y-87044000D02*
X76040000Y-87044000D01*
%TO.N,Net-(D29-Pad2)*%
X85184000Y-84758000D02*
X84634000Y-85308000D01*
X87884000Y-84758000D02*
X85184000Y-84758000D01*
%TO.N,COL-L-1*%
X93472000Y-68072000D02*
X93472000Y-75184000D01*
X98298000Y-69342000D02*
X97028000Y-68072000D01*
X100074790Y-69342000D02*
X98298000Y-69342000D01*
%TO.N,COL-L-2*%
X94234000Y-69267745D02*
X94234000Y-75184000D01*
%TO.N,COL-L-3*%
X98298000Y-71882000D02*
X97019148Y-70603148D01*
X94996000Y-70612000D02*
X94996000Y-75174008D01*
X73656084Y-82299917D02*
X71603167Y-80247000D01*
X83820000Y-77978000D02*
X80518000Y-81280000D01*
X100074790Y-71882000D02*
X98298000Y-71882000D01*
X74676000Y-81280000D02*
X73656084Y-82299917D01*
X61739000Y-80247000D02*
X61722000Y-80264000D01*
X71603167Y-80247000D02*
X61739000Y-80247000D01*
X80518000Y-81280000D02*
X74676000Y-81280000D01*
X85344000Y-77978000D02*
X83820000Y-77978000D01*
%TO.N,COL-L-4*%
X74941167Y-81769000D02*
X80918000Y-81769000D01*
X69088000Y-80772000D02*
X69088000Y-82804000D01*
X72890167Y-83820000D02*
X74941167Y-81769000D01*
X83947000Y-78740000D02*
X85842922Y-78740000D01*
X70104000Y-83820000D02*
X72890167Y-83820000D01*
X69088000Y-82804000D02*
X70104000Y-83820000D01*
X80918000Y-81769000D02*
X83947000Y-78740000D01*
X95758000Y-71807745D02*
X95758000Y-75184000D01*
%TO.N,COL-L-5*%
X86360000Y-79502000D02*
X84066167Y-79502000D01*
X96520000Y-73660000D02*
X97028000Y-73152000D01*
X84066167Y-79502000D02*
X82042000Y-81526167D01*
X82042000Y-81526167D02*
X82042000Y-81534000D01*
X96520000Y-75184000D02*
X96520000Y-73660000D01*
X100074790Y-74347745D02*
X98223745Y-74347745D01*
X98223745Y-74347745D02*
X97028000Y-73152000D01*
%TO.N,unconnected-(MCU1-Pad9)*%
X98300430Y-66802000D02*
X97025319Y-65526889D01*
X100074790Y-66802000D02*
X98300430Y-66802000D01*
%TO.N,unconnected-(MCU1-Pad8)*%
X98300699Y-64262000D02*
X97027999Y-62989300D01*
X100074790Y-64262000D02*
X98300699Y-64262000D01*
%TO.N,unconnected-(MCU1-Pad1)*%
X100127535Y-46407745D02*
X98350745Y-46407745D01*
X98350745Y-46407745D02*
X97155000Y-45212000D01*
%TO.N,DATA*%
X100074790Y-49022000D02*
X98298000Y-49022000D01*
X98298000Y-49022000D02*
X97028000Y-47752000D01*
%TD*%
M02*
