M48
; DRILL file {KiCad (6.0.9)} date Fri Dec 16 21:27:43 2022
; FORMAT={-:-/ absolute / inch / decimal}
; #@! TF.CreationDate,2022-12-16T21:27:43+00:00
; #@! TF.GenerationSoftware,Kicad,Pcbnew,(6.0.9)
; #@! TF.FileFunction,Plated,1,2,PTH
FMAT,2
INCH
; #@! TA.AperFunction,Plated,PTH,ViaDrill
T1C0.0118
; #@! TA.AperFunction,Plated,PTH,ComponentDrill
T2C0.0118
; #@! TA.AperFunction,Plated,PTH,ComponentDrill
T3C0.0157
; #@! TA.AperFunction,Plated,PTH,ComponentDrill
T4C0.0320
; #@! TA.AperFunction,Plated,PTH,ComponentDrill
T5C0.0472
; #@! TA.AperFunction,Plated,PTH,ComponentDrill
T6C0.0512
%
G90
G05
T1
X1.45Y-3.03
X1.91Y-3.18
X2.43Y-3.16
X2.72Y-3.18
X3.23Y-3.21
X3.32Y-3.01
X3.34Y-3.04
X3.36Y-3.07
X3.3796Y-3.1
X3.39Y-2.18
X3.4Y-3.13
X3.4194Y-2.2271
X3.45Y-2.28
X3.4794Y-2.3271
X3.51Y-2.38
X3.68Y-2.68
X3.68Y-2.96
X3.71Y-2.7271
X3.71Y-2.96
X3.74Y-2.78
X3.74Y-2.9596
X3.77Y-2.8271
X3.77Y-2.96
X3.8Y-2.96
X3.8197Y-2.7797
X3.8199Y-2.0798
X3.8199Y-2.5798
X3.82Y-1.9799
X3.82Y-2.4799
X3.82Y-1.88
X3.82Y-2.18
X3.82Y-2.28
X3.82Y-2.38
X3.82Y-2.68
X3.82Y-2.88
X3.825Y-1.78
T3
X1.17Y-2.6231
X1.17Y-2.7569
X1.172Y-1.9232
X1.172Y-2.0571
X1.172Y-2.2732
X1.172Y-2.4071
X1.172Y-2.9732
X1.172Y-3.1071
X1.538Y-2.2548
X1.538Y-2.3887
X1.54Y-1.9032
X1.54Y-2.0371
X1.54Y-2.6031
X1.54Y-2.7369
X1.54Y-2.9532
X1.54Y-3.0871
X1.91Y-1.8629
X1.91Y-1.9968
X1.91Y-2.2131
X1.91Y-2.3469
X1.91Y-2.5631
X1.91Y-2.6969
X1.91Y-2.9129
X1.91Y-3.0468
X1.91Y-3.2531
X1.91Y-3.3869
X2.282Y-1.8045
X2.282Y-1.9383
X2.282Y-2.1543
X2.282Y-2.2882
X2.282Y-2.5043
X2.282Y-2.6382
X2.282Y-2.8545
X2.282Y-2.9883
X2.292Y-3.2531
X2.292Y-3.3869
X2.65Y-1.8631
X2.65Y-1.9969
X2.65Y-2.2129
X2.65Y-2.3468
X2.65Y-2.5629
X2.65Y-2.6968
X2.65Y-2.9129
X2.65Y-3.0468
X2.67Y-3.2531
X2.67Y-3.3869
X3.01Y-2.2532
X3.01Y-2.3871
X3.01Y-2.6031
X3.01Y-2.7369
X3.01Y-2.9531
X3.01Y-3.0869
X3.018Y-1.9031
X3.018Y-2.0369
X3.1Y-3.2931
X3.1Y-3.4269
X3.46Y-3.2031
X3.46Y-3.3369
T4
X3.2909Y-1.78
X3.2909Y-1.88
X3.2909Y-1.98
X3.2909Y-2.08
X3.2909Y-2.18
X3.2909Y-2.28
X3.2909Y-2.38
X3.2909Y-2.48
X3.2909Y-2.58
X3.2909Y-2.68
X3.2909Y-2.78
X3.2909Y-2.88
X3.342Y-1.8271
X3.342Y-1.9271
X3.342Y-2.0271
X3.342Y-2.1271
X3.342Y-2.2271
X3.342Y-2.3271
X3.342Y-2.4271
X3.342Y-2.5271
X3.342Y-2.6271
X3.342Y-2.7271
X3.342Y-2.8271
X3.342Y-2.9271
X3.8909Y-1.78
X3.8909Y-1.88
X3.8909Y-1.98
X3.8909Y-2.08
X3.8909Y-2.18
X3.8909Y-2.28
X3.8909Y-2.38
X3.8909Y-2.48
X3.8909Y-2.58
X3.8909Y-2.68
X3.8909Y-2.78
X3.8909Y-2.88
X3.942Y-1.8271
X3.942Y-1.9271
X3.942Y-2.0271
X3.942Y-2.1271
X3.942Y-2.2271
X3.942Y-2.3271
X3.942Y-2.4271
X3.942Y-2.5271
X3.942Y-2.6271
X3.942Y-2.7271
X3.942Y-2.8271
X3.942Y-2.9271
T5
X1.042Y-2.6014
X1.042Y-2.7786
X1.0441Y-1.9016
X1.0441Y-2.0787
X1.0441Y-2.2516
X1.0441Y-2.4287
X1.0441Y-2.9516
X1.0441Y-3.1287
X1.298Y-2.6014
X1.298Y-2.7786
X1.3Y-1.9016
X1.3Y-2.0787
X1.3Y-2.2516
X1.3Y-2.4287
X1.3Y-2.9516
X1.3Y-3.1287
X1.41Y-2.2331
X1.41Y-2.4103
X1.412Y-1.8816
X1.412Y-2.0587
X1.412Y-2.5814
X1.412Y-2.7586
X1.412Y-2.9316
X1.412Y-3.1087
X1.6659Y-2.2331
X1.6659Y-2.4103
X1.668Y-1.8816
X1.668Y-2.0587
X1.668Y-2.5814
X1.668Y-2.7586
X1.668Y-2.9316
X1.668Y-3.1087
X1.782Y-1.8413
X1.782Y-2.0184
X1.782Y-2.1914
X1.782Y-2.3686
X1.782Y-2.5414
X1.782Y-2.7186
X1.782Y-2.8913
X1.782Y-3.0684
X1.782Y-3.2314
X1.782Y-3.4086
X2.038Y-1.8413
X2.038Y-2.0184
X2.038Y-2.1914
X2.038Y-2.3686
X2.038Y-2.5414
X2.038Y-2.7186
X2.038Y-2.8913
X2.038Y-3.0684
X2.038Y-3.2314
X2.038Y-3.4086
X2.1541Y-1.7828
X2.1541Y-1.96
X2.1541Y-2.1327
X2.1541Y-2.3098
X2.1541Y-2.4827
X2.1541Y-2.6598
X2.1541Y-2.8328
X2.1541Y-3.01
X2.1641Y-3.2314
X2.1641Y-3.4086
X2.41Y-1.7828
X2.41Y-1.96
X2.41Y-2.1327
X2.41Y-2.3098
X2.41Y-2.4827
X2.41Y-2.6598
X2.41Y-2.8328
X2.41Y-3.01
X2.42Y-3.2314
X2.42Y-3.4086
X2.522Y-1.8414
X2.522Y-2.0186
X2.522Y-2.1913
X2.522Y-2.3684
X2.522Y-2.5413
X2.522Y-2.7184
X2.522Y-2.8913
X2.522Y-3.0684
X2.542Y-3.2314
X2.542Y-3.4086
X2.778Y-1.8414
X2.778Y-2.0186
X2.778Y-2.1913
X2.778Y-2.3684
X2.778Y-2.5413
X2.778Y-2.7184
X2.778Y-2.8913
X2.778Y-3.0684
X2.798Y-3.2314
X2.798Y-3.4086
X2.882Y-2.2316
X2.882Y-2.4087
X2.882Y-2.5814
X2.882Y-2.7586
X2.882Y-2.9314
X2.882Y-3.1086
X2.89Y-1.8814
X2.89Y-2.0586
X2.972Y-3.2714
X2.972Y-3.4486
X3.138Y-2.2316
X3.138Y-2.4087
X3.138Y-2.5814
X3.138Y-2.7586
X3.138Y-2.9314
X3.138Y-3.1086
X3.1459Y-1.8814
X3.1459Y-2.0586
X3.228Y-3.2714
X3.228Y-3.4486
X3.332Y-3.1814
X3.332Y-3.3586
X3.588Y-3.1814
X3.588Y-3.3586
T6
X4.15Y-2.452
X4.15Y-2.708
T2
G00X4.0329Y-1.7803
M15
G01X4.0329Y-1.8314
M16
G05
G00X4.0329Y-1.8984
M15
G01X4.0329Y-1.9495
M16
G05
G00X4.0329Y-2.0558
M15
G01X4.0329Y-2.107
M16
G05
G00X4.1018Y-2.1149
M15
G01X4.1018Y-2.1661
M16
G05
G00X4.1982Y-2.1149
M15
G01X4.1982Y-2.1661
M16
G05
G00X4.2671Y-1.7803
M15
G01X4.2671Y-1.8314
M16
G05
G00X4.2671Y-1.8984
M15
G01X4.2671Y-1.9495
M16
G05
G00X4.2671Y-2.0558
M15
G01X4.2671Y-2.107
M16
G05
T0
M30
