%TF.GenerationSoftware,KiCad,Pcbnew,(6.0.9)*%
%TF.CreationDate,2022-12-16T17:53:14+00:00*%
%TF.ProjectId,PocketSplit-V1,506f636b-6574-4537-906c-69742d56312e,1.0*%
%TF.SameCoordinates,Original*%
%TF.FileFunction,Legend,Bot*%
%TF.FilePolarity,Positive*%
%FSLAX46Y46*%
G04 Gerber Fmt 4.6, Leading zero omitted, Abs format (unit mm)*
G04 Created by KiCad (PCBNEW (6.0.9)) date 2022-12-16 17:53:14*
%MOMM*%
%LPD*%
G01*
G04 APERTURE LIST*
%ADD10C,0.150000*%
%ADD11C,1.524000*%
G04 APERTURE END LIST*
D10*
%TO.C,RST1*%
X105771904Y-60814095D02*
X105390952Y-60547428D01*
X105771904Y-60356952D02*
X104971904Y-60356952D01*
X104971904Y-60661714D01*
X105010000Y-60737904D01*
X105048095Y-60776000D01*
X105124285Y-60814095D01*
X105238571Y-60814095D01*
X105314761Y-60776000D01*
X105352857Y-60737904D01*
X105390952Y-60661714D01*
X105390952Y-60356952D01*
X105352857Y-61156952D02*
X105352857Y-61423619D01*
X105771904Y-61537904D02*
X105771904Y-61156952D01*
X104971904Y-61156952D01*
X104971904Y-61537904D01*
X105733809Y-61842666D02*
X105771904Y-61956952D01*
X105771904Y-62147428D01*
X105733809Y-62223619D01*
X105695714Y-62261714D01*
X105619523Y-62299809D01*
X105543333Y-62299809D01*
X105467142Y-62261714D01*
X105429047Y-62223619D01*
X105390952Y-62147428D01*
X105352857Y-61995047D01*
X105314761Y-61918857D01*
X105276666Y-61880761D01*
X105200476Y-61842666D01*
X105124285Y-61842666D01*
X105048095Y-61880761D01*
X105010000Y-61918857D01*
X104971904Y-61995047D01*
X104971904Y-62185523D01*
X105010000Y-62299809D01*
X105352857Y-62642666D02*
X105352857Y-62909333D01*
X105771904Y-63023619D02*
X105771904Y-62642666D01*
X104971904Y-62642666D01*
X104971904Y-63023619D01*
X104971904Y-63252190D02*
X104971904Y-63709333D01*
X105771904Y-63480761D02*
X104971904Y-63480761D01*
%TO.C,D29*%
X89836380Y-81843714D02*
X88836380Y-81843714D01*
X88836380Y-82081809D01*
X88884000Y-82224666D01*
X88979238Y-82319904D01*
X89074476Y-82367523D01*
X89264952Y-82415142D01*
X89407809Y-82415142D01*
X89598285Y-82367523D01*
X89693523Y-82319904D01*
X89788761Y-82224666D01*
X89836380Y-82081809D01*
X89836380Y-81843714D01*
X88931619Y-82796095D02*
X88884000Y-82843714D01*
X88836380Y-82938952D01*
X88836380Y-83177047D01*
X88884000Y-83272285D01*
X88931619Y-83319904D01*
X89026857Y-83367523D01*
X89122095Y-83367523D01*
X89264952Y-83319904D01*
X89836380Y-82748476D01*
X89836380Y-83367523D01*
X89836380Y-83843714D02*
X89836380Y-84034190D01*
X89788761Y-84129428D01*
X89741142Y-84177047D01*
X89598285Y-84272285D01*
X89407809Y-84319904D01*
X89026857Y-84319904D01*
X88931619Y-84272285D01*
X88884000Y-84224666D01*
X88836380Y-84129428D01*
X88836380Y-83938952D01*
X88884000Y-83843714D01*
X88931619Y-83796095D01*
X89026857Y-83748476D01*
X89264952Y-83748476D01*
X89360190Y-83796095D01*
X89407809Y-83843714D01*
X89455428Y-83938952D01*
X89455428Y-84129428D01*
X89407809Y-84224666D01*
X89360190Y-84272285D01*
X89264952Y-84319904D01*
%TO.C,D6*%
X78608380Y-49299904D02*
X77608380Y-49299904D01*
X77608380Y-49538000D01*
X77656000Y-49680857D01*
X77751238Y-49776095D01*
X77846476Y-49823714D01*
X78036952Y-49871333D01*
X78179809Y-49871333D01*
X78370285Y-49823714D01*
X78465523Y-49776095D01*
X78560761Y-49680857D01*
X78608380Y-49538000D01*
X78608380Y-49299904D01*
X77608380Y-50728476D02*
X77608380Y-50538000D01*
X77656000Y-50442761D01*
X77703619Y-50395142D01*
X77846476Y-50299904D01*
X78036952Y-50252285D01*
X78417904Y-50252285D01*
X78513142Y-50299904D01*
X78560761Y-50347523D01*
X78608380Y-50442761D01*
X78608380Y-50633238D01*
X78560761Y-50728476D01*
X78513142Y-50776095D01*
X78417904Y-50823714D01*
X78179809Y-50823714D01*
X78084571Y-50776095D01*
X78036952Y-50728476D01*
X77989333Y-50633238D01*
X77989333Y-50442761D01*
X78036952Y-50347523D01*
X78084571Y-50299904D01*
X78179809Y-50252285D01*
%TO.C,D12*%
X78406380Y-57717714D02*
X77406380Y-57717714D01*
X77406380Y-57955809D01*
X77454000Y-58098666D01*
X77549238Y-58193904D01*
X77644476Y-58241523D01*
X77834952Y-58289142D01*
X77977809Y-58289142D01*
X78168285Y-58241523D01*
X78263523Y-58193904D01*
X78358761Y-58098666D01*
X78406380Y-57955809D01*
X78406380Y-57717714D01*
X78406380Y-59241523D02*
X78406380Y-58670095D01*
X78406380Y-58955809D02*
X77406380Y-58955809D01*
X77549238Y-58860571D01*
X77644476Y-58765333D01*
X77692095Y-58670095D01*
X77501619Y-59622476D02*
X77454000Y-59670095D01*
X77406380Y-59765333D01*
X77406380Y-60003428D01*
X77454000Y-60098666D01*
X77501619Y-60146285D01*
X77596857Y-60193904D01*
X77692095Y-60193904D01*
X77834952Y-60146285D01*
X78406380Y-59574857D01*
X78406380Y-60193904D01*
%TO.C,D15*%
X50466380Y-65587714D02*
X49466380Y-65587714D01*
X49466380Y-65825809D01*
X49514000Y-65968666D01*
X49609238Y-66063904D01*
X49704476Y-66111523D01*
X49894952Y-66159142D01*
X50037809Y-66159142D01*
X50228285Y-66111523D01*
X50323523Y-66063904D01*
X50418761Y-65968666D01*
X50466380Y-65825809D01*
X50466380Y-65587714D01*
X50466380Y-67111523D02*
X50466380Y-66540095D01*
X50466380Y-66825809D02*
X49466380Y-66825809D01*
X49609238Y-66730571D01*
X49704476Y-66635333D01*
X49752095Y-66540095D01*
X49466380Y-68016285D02*
X49466380Y-67540095D01*
X49942571Y-67492476D01*
X49894952Y-67540095D01*
X49847333Y-67635333D01*
X49847333Y-67873428D01*
X49894952Y-67968666D01*
X49942571Y-68016285D01*
X50037809Y-68063904D01*
X50275904Y-68063904D01*
X50371142Y-68016285D01*
X50418761Y-67968666D01*
X50466380Y-67873428D01*
X50466380Y-67635333D01*
X50418761Y-67540095D01*
X50371142Y-67492476D01*
%TO.C,D28*%
X80692380Y-84129714D02*
X79692380Y-84129714D01*
X79692380Y-84367809D01*
X79740000Y-84510666D01*
X79835238Y-84605904D01*
X79930476Y-84653523D01*
X80120952Y-84701142D01*
X80263809Y-84701142D01*
X80454285Y-84653523D01*
X80549523Y-84605904D01*
X80644761Y-84510666D01*
X80692380Y-84367809D01*
X80692380Y-84129714D01*
X79787619Y-85082095D02*
X79740000Y-85129714D01*
X79692380Y-85224952D01*
X79692380Y-85463047D01*
X79740000Y-85558285D01*
X79787619Y-85605904D01*
X79882857Y-85653523D01*
X79978095Y-85653523D01*
X80120952Y-85605904D01*
X80692380Y-85034476D01*
X80692380Y-85653523D01*
X80120952Y-86224952D02*
X80073333Y-86129714D01*
X80025714Y-86082095D01*
X79930476Y-86034476D01*
X79882857Y-86034476D01*
X79787619Y-86082095D01*
X79740000Y-86129714D01*
X79692380Y-86224952D01*
X79692380Y-86415428D01*
X79740000Y-86510666D01*
X79787619Y-86558285D01*
X79882857Y-86605904D01*
X79930476Y-86605904D01*
X80025714Y-86558285D01*
X80073333Y-86510666D01*
X80120952Y-86415428D01*
X80120952Y-86224952D01*
X80168571Y-86129714D01*
X80216190Y-86082095D01*
X80311428Y-86034476D01*
X80501904Y-86034476D01*
X80597142Y-86082095D01*
X80644761Y-86129714D01*
X80692380Y-86224952D01*
X80692380Y-86415428D01*
X80644761Y-86510666D01*
X80597142Y-86558285D01*
X80501904Y-86605904D01*
X80311428Y-86605904D01*
X80216190Y-86558285D01*
X80168571Y-86510666D01*
X80120952Y-86415428D01*
%TO.C,D7*%
X31722380Y-58701904D02*
X30722380Y-58701904D01*
X30722380Y-58940000D01*
X30770000Y-59082857D01*
X30865238Y-59178095D01*
X30960476Y-59225714D01*
X31150952Y-59273333D01*
X31293809Y-59273333D01*
X31484285Y-59225714D01*
X31579523Y-59178095D01*
X31674761Y-59082857D01*
X31722380Y-58940000D01*
X31722380Y-58701904D01*
X30722380Y-59606666D02*
X30722380Y-60273333D01*
X31722380Y-59844761D01*
%TO.C,D18*%
X78406380Y-66603714D02*
X77406380Y-66603714D01*
X77406380Y-66841809D01*
X77454000Y-66984666D01*
X77549238Y-67079904D01*
X77644476Y-67127523D01*
X77834952Y-67175142D01*
X77977809Y-67175142D01*
X78168285Y-67127523D01*
X78263523Y-67079904D01*
X78358761Y-66984666D01*
X78406380Y-66841809D01*
X78406380Y-66603714D01*
X78406380Y-68127523D02*
X78406380Y-67556095D01*
X78406380Y-67841809D02*
X77406380Y-67841809D01*
X77549238Y-67746571D01*
X77644476Y-67651333D01*
X77692095Y-67556095D01*
X77834952Y-68698952D02*
X77787333Y-68603714D01*
X77739714Y-68556095D01*
X77644476Y-68508476D01*
X77596857Y-68508476D01*
X77501619Y-68556095D01*
X77454000Y-68603714D01*
X77406380Y-68698952D01*
X77406380Y-68889428D01*
X77454000Y-68984666D01*
X77501619Y-69032285D01*
X77596857Y-69079904D01*
X77644476Y-69079904D01*
X77739714Y-69032285D01*
X77787333Y-68984666D01*
X77834952Y-68889428D01*
X77834952Y-68698952D01*
X77882571Y-68603714D01*
X77930190Y-68556095D01*
X78025428Y-68508476D01*
X78215904Y-68508476D01*
X78311142Y-68556095D01*
X78358761Y-68603714D01*
X78406380Y-68698952D01*
X78406380Y-68889428D01*
X78358761Y-68984666D01*
X78311142Y-69032285D01*
X78215904Y-69079904D01*
X78025428Y-69079904D01*
X77930190Y-69032285D01*
X77882571Y-68984666D01*
X77834952Y-68889428D01*
%TO.C,D10*%
X59916380Y-55205714D02*
X58916380Y-55205714D01*
X58916380Y-55443809D01*
X58964000Y-55586666D01*
X59059238Y-55681904D01*
X59154476Y-55729523D01*
X59344952Y-55777142D01*
X59487809Y-55777142D01*
X59678285Y-55729523D01*
X59773523Y-55681904D01*
X59868761Y-55586666D01*
X59916380Y-55443809D01*
X59916380Y-55205714D01*
X59916380Y-56729523D02*
X59916380Y-56158095D01*
X59916380Y-56443809D02*
X58916380Y-56443809D01*
X59059238Y-56348571D01*
X59154476Y-56253333D01*
X59202095Y-56158095D01*
X58916380Y-57348571D02*
X58916380Y-57443809D01*
X58964000Y-57539047D01*
X59011619Y-57586666D01*
X59106857Y-57634285D01*
X59297333Y-57681904D01*
X59535428Y-57681904D01*
X59725904Y-57634285D01*
X59821142Y-57586666D01*
X59868761Y-57539047D01*
X59916380Y-57443809D01*
X59916380Y-57348571D01*
X59868761Y-57253333D01*
X59821142Y-57205714D01*
X59725904Y-57158095D01*
X59535428Y-57110476D01*
X59297333Y-57110476D01*
X59106857Y-57158095D01*
X59011619Y-57205714D01*
X58964000Y-57253333D01*
X58916380Y-57348571D01*
%TO.C,D2*%
X41068380Y-49303904D02*
X40068380Y-49303904D01*
X40068380Y-49542000D01*
X40116000Y-49684857D01*
X40211238Y-49780095D01*
X40306476Y-49827714D01*
X40496952Y-49875333D01*
X40639809Y-49875333D01*
X40830285Y-49827714D01*
X40925523Y-49780095D01*
X41020761Y-49684857D01*
X41068380Y-49542000D01*
X41068380Y-49303904D01*
X40163619Y-50256285D02*
X40116000Y-50303904D01*
X40068380Y-50399142D01*
X40068380Y-50637238D01*
X40116000Y-50732476D01*
X40163619Y-50780095D01*
X40258857Y-50827714D01*
X40354095Y-50827714D01*
X40496952Y-50780095D01*
X41068380Y-50208666D01*
X41068380Y-50827714D01*
%TO.C,D3*%
X50466380Y-48279904D02*
X49466380Y-48279904D01*
X49466380Y-48518000D01*
X49514000Y-48660857D01*
X49609238Y-48756095D01*
X49704476Y-48803714D01*
X49894952Y-48851333D01*
X50037809Y-48851333D01*
X50228285Y-48803714D01*
X50323523Y-48756095D01*
X50418761Y-48660857D01*
X50466380Y-48518000D01*
X50466380Y-48279904D01*
X49466380Y-49184666D02*
X49466380Y-49803714D01*
X49847333Y-49470380D01*
X49847333Y-49613238D01*
X49894952Y-49708476D01*
X49942571Y-49756095D01*
X50037809Y-49803714D01*
X50275904Y-49803714D01*
X50371142Y-49756095D01*
X50418761Y-49708476D01*
X50466380Y-49613238D01*
X50466380Y-49327523D01*
X50418761Y-49232285D01*
X50371142Y-49184666D01*
%TO.C,D19*%
X31722380Y-76005714D02*
X30722380Y-76005714D01*
X30722380Y-76243809D01*
X30770000Y-76386666D01*
X30865238Y-76481904D01*
X30960476Y-76529523D01*
X31150952Y-76577142D01*
X31293809Y-76577142D01*
X31484285Y-76529523D01*
X31579523Y-76481904D01*
X31674761Y-76386666D01*
X31722380Y-76243809D01*
X31722380Y-76005714D01*
X31722380Y-77529523D02*
X31722380Y-76958095D01*
X31722380Y-77243809D02*
X30722380Y-77243809D01*
X30865238Y-77148571D01*
X30960476Y-77053333D01*
X31008095Y-76958095D01*
X31722380Y-78005714D02*
X31722380Y-78196190D01*
X31674761Y-78291428D01*
X31627142Y-78339047D01*
X31484285Y-78434285D01*
X31293809Y-78481904D01*
X30912857Y-78481904D01*
X30817619Y-78434285D01*
X30770000Y-78386666D01*
X30722380Y-78291428D01*
X30722380Y-78100952D01*
X30770000Y-78005714D01*
X30817619Y-77958095D01*
X30912857Y-77910476D01*
X31150952Y-77910476D01*
X31246190Y-77958095D01*
X31293809Y-78005714D01*
X31341428Y-78100952D01*
X31341428Y-78291428D01*
X31293809Y-78386666D01*
X31246190Y-78434285D01*
X31150952Y-78481904D01*
%TO.C,D26*%
X60170380Y-83113714D02*
X59170380Y-83113714D01*
X59170380Y-83351809D01*
X59218000Y-83494666D01*
X59313238Y-83589904D01*
X59408476Y-83637523D01*
X59598952Y-83685142D01*
X59741809Y-83685142D01*
X59932285Y-83637523D01*
X60027523Y-83589904D01*
X60122761Y-83494666D01*
X60170380Y-83351809D01*
X60170380Y-83113714D01*
X59265619Y-84066095D02*
X59218000Y-84113714D01*
X59170380Y-84208952D01*
X59170380Y-84447047D01*
X59218000Y-84542285D01*
X59265619Y-84589904D01*
X59360857Y-84637523D01*
X59456095Y-84637523D01*
X59598952Y-84589904D01*
X60170380Y-84018476D01*
X60170380Y-84637523D01*
X59170380Y-85494666D02*
X59170380Y-85304190D01*
X59218000Y-85208952D01*
X59265619Y-85161333D01*
X59408476Y-85066095D01*
X59598952Y-85018476D01*
X59979904Y-85018476D01*
X60075142Y-85066095D01*
X60122761Y-85113714D01*
X60170380Y-85208952D01*
X60170380Y-85399428D01*
X60122761Y-85494666D01*
X60075142Y-85542285D01*
X59979904Y-85589904D01*
X59741809Y-85589904D01*
X59646571Y-85542285D01*
X59598952Y-85494666D01*
X59551333Y-85399428D01*
X59551333Y-85208952D01*
X59598952Y-85113714D01*
X59646571Y-85066095D01*
X59741809Y-85018476D01*
%TO.C,D27*%
X69770380Y-83113714D02*
X68770380Y-83113714D01*
X68770380Y-83351809D01*
X68818000Y-83494666D01*
X68913238Y-83589904D01*
X69008476Y-83637523D01*
X69198952Y-83685142D01*
X69341809Y-83685142D01*
X69532285Y-83637523D01*
X69627523Y-83589904D01*
X69722761Y-83494666D01*
X69770380Y-83351809D01*
X69770380Y-83113714D01*
X68865619Y-84066095D02*
X68818000Y-84113714D01*
X68770380Y-84208952D01*
X68770380Y-84447047D01*
X68818000Y-84542285D01*
X68865619Y-84589904D01*
X68960857Y-84637523D01*
X69056095Y-84637523D01*
X69198952Y-84589904D01*
X69770380Y-84018476D01*
X69770380Y-84637523D01*
X68770380Y-84970857D02*
X68770380Y-85637523D01*
X69770380Y-85208952D01*
%TO.C,D22*%
X59916380Y-72989714D02*
X58916380Y-72989714D01*
X58916380Y-73227809D01*
X58964000Y-73370666D01*
X59059238Y-73465904D01*
X59154476Y-73513523D01*
X59344952Y-73561142D01*
X59487809Y-73561142D01*
X59678285Y-73513523D01*
X59773523Y-73465904D01*
X59868761Y-73370666D01*
X59916380Y-73227809D01*
X59916380Y-72989714D01*
X59011619Y-73942095D02*
X58964000Y-73989714D01*
X58916380Y-74084952D01*
X58916380Y-74323047D01*
X58964000Y-74418285D01*
X59011619Y-74465904D01*
X59106857Y-74513523D01*
X59202095Y-74513523D01*
X59344952Y-74465904D01*
X59916380Y-73894476D01*
X59916380Y-74513523D01*
X59011619Y-74894476D02*
X58964000Y-74942095D01*
X58916380Y-75037333D01*
X58916380Y-75275428D01*
X58964000Y-75370666D01*
X59011619Y-75418285D01*
X59106857Y-75465904D01*
X59202095Y-75465904D01*
X59344952Y-75418285D01*
X59916380Y-74846857D01*
X59916380Y-75465904D01*
%TO.C,D9*%
X50466380Y-57173904D02*
X49466380Y-57173904D01*
X49466380Y-57412000D01*
X49514000Y-57554857D01*
X49609238Y-57650095D01*
X49704476Y-57697714D01*
X49894952Y-57745333D01*
X50037809Y-57745333D01*
X50228285Y-57697714D01*
X50323523Y-57650095D01*
X50418761Y-57554857D01*
X50466380Y-57412000D01*
X50466380Y-57173904D01*
X50466380Y-58221523D02*
X50466380Y-58412000D01*
X50418761Y-58507238D01*
X50371142Y-58554857D01*
X50228285Y-58650095D01*
X50037809Y-58697714D01*
X49656857Y-58697714D01*
X49561619Y-58650095D01*
X49514000Y-58602476D01*
X49466380Y-58507238D01*
X49466380Y-58316761D01*
X49514000Y-58221523D01*
X49561619Y-58173904D01*
X49656857Y-58126285D01*
X49894952Y-58126285D01*
X49990190Y-58173904D01*
X50037809Y-58221523D01*
X50085428Y-58316761D01*
X50085428Y-58507238D01*
X50037809Y-58602476D01*
X49990190Y-58650095D01*
X49894952Y-58697714D01*
%TO.C,D13*%
X31670380Y-67111714D02*
X30670380Y-67111714D01*
X30670380Y-67349809D01*
X30718000Y-67492666D01*
X30813238Y-67587904D01*
X30908476Y-67635523D01*
X31098952Y-67683142D01*
X31241809Y-67683142D01*
X31432285Y-67635523D01*
X31527523Y-67587904D01*
X31622761Y-67492666D01*
X31670380Y-67349809D01*
X31670380Y-67111714D01*
X31670380Y-68635523D02*
X31670380Y-68064095D01*
X31670380Y-68349809D02*
X30670380Y-68349809D01*
X30813238Y-68254571D01*
X30908476Y-68159333D01*
X30956095Y-68064095D01*
X30670380Y-68968857D02*
X30670380Y-69587904D01*
X31051333Y-69254571D01*
X31051333Y-69397428D01*
X31098952Y-69492666D01*
X31146571Y-69540285D01*
X31241809Y-69587904D01*
X31479904Y-69587904D01*
X31575142Y-69540285D01*
X31622761Y-69492666D01*
X31670380Y-69397428D01*
X31670380Y-69111714D01*
X31622761Y-69016476D01*
X31575142Y-68968857D01*
%TO.C,D24*%
X78406380Y-75493714D02*
X77406380Y-75493714D01*
X77406380Y-75731809D01*
X77454000Y-75874666D01*
X77549238Y-75969904D01*
X77644476Y-76017523D01*
X77834952Y-76065142D01*
X77977809Y-76065142D01*
X78168285Y-76017523D01*
X78263523Y-75969904D01*
X78358761Y-75874666D01*
X78406380Y-75731809D01*
X78406380Y-75493714D01*
X77501619Y-76446095D02*
X77454000Y-76493714D01*
X77406380Y-76588952D01*
X77406380Y-76827047D01*
X77454000Y-76922285D01*
X77501619Y-76969904D01*
X77596857Y-77017523D01*
X77692095Y-77017523D01*
X77834952Y-76969904D01*
X78406380Y-76398476D01*
X78406380Y-77017523D01*
X77739714Y-77874666D02*
X78406380Y-77874666D01*
X77358761Y-77636571D02*
X78073047Y-77398476D01*
X78073047Y-78017523D01*
%TO.C,D16*%
X59916380Y-64095714D02*
X58916380Y-64095714D01*
X58916380Y-64333809D01*
X58964000Y-64476666D01*
X59059238Y-64571904D01*
X59154476Y-64619523D01*
X59344952Y-64667142D01*
X59487809Y-64667142D01*
X59678285Y-64619523D01*
X59773523Y-64571904D01*
X59868761Y-64476666D01*
X59916380Y-64333809D01*
X59916380Y-64095714D01*
X59916380Y-65619523D02*
X59916380Y-65048095D01*
X59916380Y-65333809D02*
X58916380Y-65333809D01*
X59059238Y-65238571D01*
X59154476Y-65143333D01*
X59202095Y-65048095D01*
X58916380Y-66476666D02*
X58916380Y-66286190D01*
X58964000Y-66190952D01*
X59011619Y-66143333D01*
X59154476Y-66048095D01*
X59344952Y-66000476D01*
X59725904Y-66000476D01*
X59821142Y-66048095D01*
X59868761Y-66095714D01*
X59916380Y-66190952D01*
X59916380Y-66381428D01*
X59868761Y-66476666D01*
X59821142Y-66524285D01*
X59725904Y-66571904D01*
X59487809Y-66571904D01*
X59392571Y-66524285D01*
X59344952Y-66476666D01*
X59297333Y-66381428D01*
X59297333Y-66190952D01*
X59344952Y-66095714D01*
X59392571Y-66048095D01*
X59487809Y-66000476D01*
%TO.C,D21*%
X50466380Y-74473714D02*
X49466380Y-74473714D01*
X49466380Y-74711809D01*
X49514000Y-74854666D01*
X49609238Y-74949904D01*
X49704476Y-74997523D01*
X49894952Y-75045142D01*
X50037809Y-75045142D01*
X50228285Y-74997523D01*
X50323523Y-74949904D01*
X50418761Y-74854666D01*
X50466380Y-74711809D01*
X50466380Y-74473714D01*
X49561619Y-75426095D02*
X49514000Y-75473714D01*
X49466380Y-75568952D01*
X49466380Y-75807047D01*
X49514000Y-75902285D01*
X49561619Y-75949904D01*
X49656857Y-75997523D01*
X49752095Y-75997523D01*
X49894952Y-75949904D01*
X50466380Y-75378476D01*
X50466380Y-75997523D01*
X50466380Y-76949904D02*
X50466380Y-76378476D01*
X50466380Y-76664190D02*
X49466380Y-76664190D01*
X49609238Y-76568952D01*
X49704476Y-76473714D01*
X49752095Y-76378476D01*
%TO.C,D23*%
X69262380Y-74473714D02*
X68262380Y-74473714D01*
X68262380Y-74711809D01*
X68310000Y-74854666D01*
X68405238Y-74949904D01*
X68500476Y-74997523D01*
X68690952Y-75045142D01*
X68833809Y-75045142D01*
X69024285Y-74997523D01*
X69119523Y-74949904D01*
X69214761Y-74854666D01*
X69262380Y-74711809D01*
X69262380Y-74473714D01*
X68357619Y-75426095D02*
X68310000Y-75473714D01*
X68262380Y-75568952D01*
X68262380Y-75807047D01*
X68310000Y-75902285D01*
X68357619Y-75949904D01*
X68452857Y-75997523D01*
X68548095Y-75997523D01*
X68690952Y-75949904D01*
X69262380Y-75378476D01*
X69262380Y-75997523D01*
X68262380Y-76330857D02*
X68262380Y-76949904D01*
X68643333Y-76616571D01*
X68643333Y-76759428D01*
X68690952Y-76854666D01*
X68738571Y-76902285D01*
X68833809Y-76949904D01*
X69071904Y-76949904D01*
X69167142Y-76902285D01*
X69214761Y-76854666D01*
X69262380Y-76759428D01*
X69262380Y-76473714D01*
X69214761Y-76378476D01*
X69167142Y-76330857D01*
%TO.C,D17*%
X69262380Y-65583714D02*
X68262380Y-65583714D01*
X68262380Y-65821809D01*
X68310000Y-65964666D01*
X68405238Y-66059904D01*
X68500476Y-66107523D01*
X68690952Y-66155142D01*
X68833809Y-66155142D01*
X69024285Y-66107523D01*
X69119523Y-66059904D01*
X69214761Y-65964666D01*
X69262380Y-65821809D01*
X69262380Y-65583714D01*
X69262380Y-67107523D02*
X69262380Y-66536095D01*
X69262380Y-66821809D02*
X68262380Y-66821809D01*
X68405238Y-66726571D01*
X68500476Y-66631333D01*
X68548095Y-66536095D01*
X68262380Y-67440857D02*
X68262380Y-68107523D01*
X69262380Y-67678952D01*
%TO.C,D11*%
X69262380Y-56693714D02*
X68262380Y-56693714D01*
X68262380Y-56931809D01*
X68310000Y-57074666D01*
X68405238Y-57169904D01*
X68500476Y-57217523D01*
X68690952Y-57265142D01*
X68833809Y-57265142D01*
X69024285Y-57217523D01*
X69119523Y-57169904D01*
X69214761Y-57074666D01*
X69262380Y-56931809D01*
X69262380Y-56693714D01*
X69262380Y-58217523D02*
X69262380Y-57646095D01*
X69262380Y-57931809D02*
X68262380Y-57931809D01*
X68405238Y-57836571D01*
X68500476Y-57741333D01*
X68548095Y-57646095D01*
X69262380Y-59169904D02*
X69262380Y-58598476D01*
X69262380Y-58884190D02*
X68262380Y-58884190D01*
X68405238Y-58788952D01*
X68500476Y-58693714D01*
X68548095Y-58598476D01*
%TO.C,D20*%
X41068380Y-75497714D02*
X40068380Y-75497714D01*
X40068380Y-75735809D01*
X40116000Y-75878666D01*
X40211238Y-75973904D01*
X40306476Y-76021523D01*
X40496952Y-76069142D01*
X40639809Y-76069142D01*
X40830285Y-76021523D01*
X40925523Y-75973904D01*
X41020761Y-75878666D01*
X41068380Y-75735809D01*
X41068380Y-75497714D01*
X40163619Y-76450095D02*
X40116000Y-76497714D01*
X40068380Y-76592952D01*
X40068380Y-76831047D01*
X40116000Y-76926285D01*
X40163619Y-76973904D01*
X40258857Y-77021523D01*
X40354095Y-77021523D01*
X40496952Y-76973904D01*
X41068380Y-76402476D01*
X41068380Y-77021523D01*
X40068380Y-77640571D02*
X40068380Y-77735809D01*
X40116000Y-77831047D01*
X40163619Y-77878666D01*
X40258857Y-77926285D01*
X40449333Y-77973904D01*
X40687428Y-77973904D01*
X40877904Y-77926285D01*
X40973142Y-77878666D01*
X41020761Y-77831047D01*
X41068380Y-77735809D01*
X41068380Y-77640571D01*
X41020761Y-77545333D01*
X40973142Y-77497714D01*
X40877904Y-77450095D01*
X40687428Y-77402476D01*
X40449333Y-77402476D01*
X40258857Y-77450095D01*
X40163619Y-77497714D01*
X40116000Y-77545333D01*
X40068380Y-77640571D01*
%TO.C,D8*%
X41016380Y-58233904D02*
X40016380Y-58233904D01*
X40016380Y-58472000D01*
X40064000Y-58614857D01*
X40159238Y-58710095D01*
X40254476Y-58757714D01*
X40444952Y-58805333D01*
X40587809Y-58805333D01*
X40778285Y-58757714D01*
X40873523Y-58710095D01*
X40968761Y-58614857D01*
X41016380Y-58472000D01*
X41016380Y-58233904D01*
X40444952Y-59376761D02*
X40397333Y-59281523D01*
X40349714Y-59233904D01*
X40254476Y-59186285D01*
X40206857Y-59186285D01*
X40111619Y-59233904D01*
X40064000Y-59281523D01*
X40016380Y-59376761D01*
X40016380Y-59567238D01*
X40064000Y-59662476D01*
X40111619Y-59710095D01*
X40206857Y-59757714D01*
X40254476Y-59757714D01*
X40349714Y-59710095D01*
X40397333Y-59662476D01*
X40444952Y-59567238D01*
X40444952Y-59376761D01*
X40492571Y-59281523D01*
X40540190Y-59233904D01*
X40635428Y-59186285D01*
X40825904Y-59186285D01*
X40921142Y-59233904D01*
X40968761Y-59281523D01*
X41016380Y-59376761D01*
X41016380Y-59567238D01*
X40968761Y-59662476D01*
X40921142Y-59710095D01*
X40825904Y-59757714D01*
X40635428Y-59757714D01*
X40540190Y-59710095D01*
X40492571Y-59662476D01*
X40444952Y-59567238D01*
%TO.C,D5*%
X69262380Y-48283904D02*
X68262380Y-48283904D01*
X68262380Y-48522000D01*
X68310000Y-48664857D01*
X68405238Y-48760095D01*
X68500476Y-48807714D01*
X68690952Y-48855333D01*
X68833809Y-48855333D01*
X69024285Y-48807714D01*
X69119523Y-48760095D01*
X69214761Y-48664857D01*
X69262380Y-48522000D01*
X69262380Y-48283904D01*
X68262380Y-49760095D02*
X68262380Y-49283904D01*
X68738571Y-49236285D01*
X68690952Y-49283904D01*
X68643333Y-49379142D01*
X68643333Y-49617238D01*
X68690952Y-49712476D01*
X68738571Y-49760095D01*
X68833809Y-49807714D01*
X69071904Y-49807714D01*
X69167142Y-49760095D01*
X69214761Y-49712476D01*
X69262380Y-49617238D01*
X69262380Y-49379142D01*
X69214761Y-49283904D01*
X69167142Y-49236285D01*
%TO.C,D1*%
X31746380Y-49811904D02*
X30746380Y-49811904D01*
X30746380Y-50050000D01*
X30794000Y-50192857D01*
X30889238Y-50288095D01*
X30984476Y-50335714D01*
X31174952Y-50383333D01*
X31317809Y-50383333D01*
X31508285Y-50335714D01*
X31603523Y-50288095D01*
X31698761Y-50192857D01*
X31746380Y-50050000D01*
X31746380Y-49811904D01*
X31746380Y-51335714D02*
X31746380Y-50764285D01*
X31746380Y-51050000D02*
X30746380Y-51050000D01*
X30889238Y-50954761D01*
X30984476Y-50859523D01*
X31032095Y-50764285D01*
%TO.C,D4*%
X59916380Y-46795904D02*
X58916380Y-46795904D01*
X58916380Y-47034000D01*
X58964000Y-47176857D01*
X59059238Y-47272095D01*
X59154476Y-47319714D01*
X59344952Y-47367333D01*
X59487809Y-47367333D01*
X59678285Y-47319714D01*
X59773523Y-47272095D01*
X59868761Y-47176857D01*
X59916380Y-47034000D01*
X59916380Y-46795904D01*
X59249714Y-48224476D02*
X59916380Y-48224476D01*
X58868761Y-47986380D02*
X59583047Y-47748285D01*
X59583047Y-48367333D01*
%TO.C,D14*%
X41068380Y-66603714D02*
X40068380Y-66603714D01*
X40068380Y-66841809D01*
X40116000Y-66984666D01*
X40211238Y-67079904D01*
X40306476Y-67127523D01*
X40496952Y-67175142D01*
X40639809Y-67175142D01*
X40830285Y-67127523D01*
X40925523Y-67079904D01*
X41020761Y-66984666D01*
X41068380Y-66841809D01*
X41068380Y-66603714D01*
X41068380Y-68127523D02*
X41068380Y-67556095D01*
X41068380Y-67841809D02*
X40068380Y-67841809D01*
X40211238Y-67746571D01*
X40306476Y-67651333D01*
X40354095Y-67556095D01*
X40401714Y-68984666D02*
X41068380Y-68984666D01*
X40020761Y-68746571D02*
X40735047Y-68508476D01*
X40735047Y-69127523D01*
%TO.C,D25*%
X50466380Y-83113714D02*
X49466380Y-83113714D01*
X49466380Y-83351809D01*
X49514000Y-83494666D01*
X49609238Y-83589904D01*
X49704476Y-83637523D01*
X49894952Y-83685142D01*
X50037809Y-83685142D01*
X50228285Y-83637523D01*
X50323523Y-83589904D01*
X50418761Y-83494666D01*
X50466380Y-83351809D01*
X50466380Y-83113714D01*
X49561619Y-84066095D02*
X49514000Y-84113714D01*
X49466380Y-84208952D01*
X49466380Y-84447047D01*
X49514000Y-84542285D01*
X49561619Y-84589904D01*
X49656857Y-84637523D01*
X49752095Y-84637523D01*
X49894952Y-84589904D01*
X50466380Y-84018476D01*
X50466380Y-84637523D01*
X49466380Y-85542285D02*
X49466380Y-85066095D01*
X49942571Y-85018476D01*
X49894952Y-85066095D01*
X49847333Y-85161333D01*
X49847333Y-85399428D01*
X49894952Y-85494666D01*
X49942571Y-85542285D01*
X50037809Y-85589904D01*
X50275904Y-85589904D01*
X50371142Y-85542285D01*
X50418761Y-85494666D01*
X50466380Y-85399428D01*
X50466380Y-85161333D01*
X50418761Y-85066095D01*
X50371142Y-85018476D01*
%TO.C,MCU1*%
X82318720Y-74422000D02*
X82318720Y-43942000D01*
X100098720Y-43942000D02*
X100098720Y-74422000D01*
X84858720Y-74422000D02*
X82318720Y-74422000D01*
X100098720Y-74422000D02*
X97558720Y-74422000D01*
X97558720Y-43942000D02*
X100098720Y-43942000D01*
X82318720Y-74422000D02*
X82318720Y-41402000D01*
X97558720Y-74422000D02*
X97558720Y-43942000D01*
X82318720Y-41402000D02*
X100098720Y-41402000D01*
X84858720Y-43942000D02*
X84858720Y-74422000D01*
X82318720Y-43942000D02*
X84858720Y-43942000D01*
X100098720Y-41402000D02*
X100098720Y-74422000D01*
%TO.C,J1*%
X107281000Y-43584500D02*
X107281000Y-55584500D01*
X101831000Y-41684500D02*
X106781000Y-41684500D01*
X101781000Y-43584500D02*
X101781000Y-41684500D01*
X101281000Y-43584500D02*
X101781000Y-43584500D01*
X107281000Y-43584500D02*
X106781000Y-43584500D01*
X106781000Y-43584500D02*
X106781000Y-41684500D01*
X101281000Y-55584500D02*
X101281000Y-43584500D01*
X107281000Y-55584500D02*
X101281000Y-55584500D01*
%TO.C,RST1*%
X103610000Y-64976000D02*
X103610000Y-58976000D01*
X103610000Y-64976000D02*
X103610000Y-59076000D01*
X103610000Y-58976000D02*
X104310000Y-58976000D01*
X107110000Y-58976000D02*
X106510000Y-58976000D01*
X103610000Y-64976000D02*
X104310000Y-64976000D01*
X107110000Y-58976000D02*
X107110000Y-64976000D01*
X107110000Y-64976000D02*
X106510000Y-64976000D01*
%TO.C,D29*%
X87184000Y-82558000D02*
X88584000Y-82558000D01*
X87884000Y-82558000D02*
X87184000Y-83458000D01*
X88584000Y-83458000D02*
X87884000Y-82558000D01*
X87184000Y-83458000D02*
X88584000Y-83458000D01*
%TO.C,D6*%
X77356000Y-50438000D02*
X76656000Y-49538000D01*
X75956000Y-50438000D02*
X77356000Y-50438000D01*
X76656000Y-49538000D02*
X75956000Y-50438000D01*
X75956000Y-49538000D02*
X77356000Y-49538000D01*
%TO.C,D12*%
X76454000Y-58432000D02*
X75754000Y-59332000D01*
X75754000Y-59332000D02*
X77154000Y-59332000D01*
X75754000Y-58432000D02*
X77154000Y-58432000D01*
X77154000Y-59332000D02*
X76454000Y-58432000D01*
%TO.C,D15*%
X47814000Y-67202000D02*
X49214000Y-67202000D01*
X47814000Y-66302000D02*
X49214000Y-66302000D01*
X49214000Y-67202000D02*
X48514000Y-66302000D01*
X48514000Y-66302000D02*
X47814000Y-67202000D01*
%TO.C,D28*%
X79440000Y-85744000D02*
X78740000Y-84844000D01*
X78740000Y-84844000D02*
X78040000Y-85744000D01*
X78040000Y-85744000D02*
X79440000Y-85744000D01*
X78040000Y-84844000D02*
X79440000Y-84844000D01*
%TO.C,D7*%
X29070000Y-59840000D02*
X30470000Y-59840000D01*
X30470000Y-59840000D02*
X29770000Y-58940000D01*
X29070000Y-58940000D02*
X30470000Y-58940000D01*
X29770000Y-58940000D02*
X29070000Y-59840000D01*
%TO.C,D18*%
X75754000Y-68218000D02*
X77154000Y-68218000D01*
X75754000Y-67318000D02*
X77154000Y-67318000D01*
X77154000Y-68218000D02*
X76454000Y-67318000D01*
X76454000Y-67318000D02*
X75754000Y-68218000D01*
%TO.C,D10*%
X58664000Y-56820000D02*
X57964000Y-55920000D01*
X57964000Y-55920000D02*
X57264000Y-56820000D01*
X57264000Y-56820000D02*
X58664000Y-56820000D01*
X57264000Y-55920000D02*
X58664000Y-55920000D01*
%TO.C,D2*%
X38416000Y-49542000D02*
X39816000Y-49542000D01*
X39816000Y-50442000D02*
X39116000Y-49542000D01*
X39116000Y-49542000D02*
X38416000Y-50442000D01*
X38416000Y-50442000D02*
X39816000Y-50442000D01*
%TO.C,D3*%
X48514000Y-48518000D02*
X47814000Y-49418000D01*
X49214000Y-49418000D02*
X48514000Y-48518000D01*
X47814000Y-48518000D02*
X49214000Y-48518000D01*
X47814000Y-49418000D02*
X49214000Y-49418000D01*
%TO.C,D19*%
X30470000Y-77620000D02*
X29770000Y-76720000D01*
X29070000Y-77620000D02*
X30470000Y-77620000D01*
X29770000Y-76720000D02*
X29070000Y-77620000D01*
X29070000Y-76720000D02*
X30470000Y-76720000D01*
%TO.C,D26*%
X57518000Y-84728000D02*
X58918000Y-84728000D01*
X58218000Y-83828000D02*
X57518000Y-84728000D01*
X58918000Y-84728000D02*
X58218000Y-83828000D01*
X57518000Y-83828000D02*
X58918000Y-83828000D01*
%TO.C,D27*%
X67818000Y-83828000D02*
X67118000Y-84728000D01*
X67118000Y-84728000D02*
X68518000Y-84728000D01*
X67118000Y-83828000D02*
X68518000Y-83828000D01*
X68518000Y-84728000D02*
X67818000Y-83828000D01*
%TO.C,D22*%
X57264000Y-74604000D02*
X58664000Y-74604000D01*
X58664000Y-74604000D02*
X57964000Y-73704000D01*
X57964000Y-73704000D02*
X57264000Y-74604000D01*
X57264000Y-73704000D02*
X58664000Y-73704000D01*
%TO.C,D9*%
X48514000Y-57412000D02*
X47814000Y-58312000D01*
X47814000Y-57412000D02*
X49214000Y-57412000D01*
X49214000Y-58312000D02*
X48514000Y-57412000D01*
X47814000Y-58312000D02*
X49214000Y-58312000D01*
%TO.C,D13*%
X29018000Y-67826000D02*
X30418000Y-67826000D01*
X29018000Y-68726000D02*
X30418000Y-68726000D01*
X30418000Y-68726000D02*
X29718000Y-67826000D01*
X29718000Y-67826000D02*
X29018000Y-68726000D01*
%TO.C,D24*%
X75754000Y-77108000D02*
X77154000Y-77108000D01*
X77154000Y-77108000D02*
X76454000Y-76208000D01*
X76454000Y-76208000D02*
X75754000Y-77108000D01*
X75754000Y-76208000D02*
X77154000Y-76208000D01*
%TO.C,D16*%
X57964000Y-64810000D02*
X57264000Y-65710000D01*
X57264000Y-64810000D02*
X58664000Y-64810000D01*
X58664000Y-65710000D02*
X57964000Y-64810000D01*
X57264000Y-65710000D02*
X58664000Y-65710000D01*
%TO.C,D21*%
X48514000Y-75188000D02*
X47814000Y-76088000D01*
X49214000Y-76088000D02*
X48514000Y-75188000D01*
X47814000Y-75188000D02*
X49214000Y-75188000D01*
X47814000Y-76088000D02*
X49214000Y-76088000D01*
%TO.C,D23*%
X66610000Y-76088000D02*
X68010000Y-76088000D01*
X67310000Y-75188000D02*
X66610000Y-76088000D01*
X68010000Y-76088000D02*
X67310000Y-75188000D01*
X66610000Y-75188000D02*
X68010000Y-75188000D01*
%TO.C,D17*%
X67310000Y-66298000D02*
X66610000Y-67198000D01*
X66610000Y-66298000D02*
X68010000Y-66298000D01*
X66610000Y-67198000D02*
X68010000Y-67198000D01*
X68010000Y-67198000D02*
X67310000Y-66298000D01*
%TO.C,D11*%
X66610000Y-57408000D02*
X68010000Y-57408000D01*
X68010000Y-58308000D02*
X67310000Y-57408000D01*
X66610000Y-58308000D02*
X68010000Y-58308000D01*
X67310000Y-57408000D02*
X66610000Y-58308000D01*
%TO.C,D20*%
X38416000Y-77112000D02*
X39816000Y-77112000D01*
X39816000Y-77112000D02*
X39116000Y-76212000D01*
X39116000Y-76212000D02*
X38416000Y-77112000D01*
X38416000Y-76212000D02*
X39816000Y-76212000D01*
%TO.C,D8*%
X39764000Y-59372000D02*
X39064000Y-58472000D01*
X39064000Y-58472000D02*
X38364000Y-59372000D01*
X38364000Y-59372000D02*
X39764000Y-59372000D01*
X38364000Y-58472000D02*
X39764000Y-58472000D01*
%TO.C,D5*%
X66610000Y-49422000D02*
X68010000Y-49422000D01*
X68010000Y-49422000D02*
X67310000Y-48522000D01*
X66610000Y-48522000D02*
X68010000Y-48522000D01*
X67310000Y-48522000D02*
X66610000Y-49422000D01*
%TO.C,D1*%
X29070000Y-50050000D02*
X30470000Y-50050000D01*
X29770000Y-50050000D02*
X29070000Y-50950000D01*
X30470000Y-50950000D02*
X29770000Y-50050000D01*
X29070000Y-50950000D02*
X30470000Y-50950000D01*
%TO.C,D4*%
X57264000Y-47034000D02*
X58664000Y-47034000D01*
X57264000Y-47934000D02*
X58664000Y-47934000D01*
X58664000Y-47934000D02*
X57964000Y-47034000D01*
X57964000Y-47034000D02*
X57264000Y-47934000D01*
%TO.C,D14*%
X39816000Y-68218000D02*
X39116000Y-67318000D01*
X38416000Y-67318000D02*
X39816000Y-67318000D01*
X38416000Y-68218000D02*
X39816000Y-68218000D01*
X39116000Y-67318000D02*
X38416000Y-68218000D01*
%TO.C,D25*%
X47814000Y-84728000D02*
X49214000Y-84728000D01*
X48514000Y-83828000D02*
X47814000Y-84728000D01*
X47814000Y-83828000D02*
X49214000Y-83828000D01*
X49214000Y-84728000D02*
X48514000Y-83828000D01*
%TD*%
D11*
%TO.C,MCU1*%
X100127535Y-46407745D03*
X100127535Y-48947745D03*
X100127535Y-51487745D03*
X100127535Y-54027745D03*
X100127535Y-56567745D03*
X100127535Y-59107745D03*
X100127535Y-61647745D03*
X100127535Y-64187745D03*
X100127535Y-66727745D03*
X100127535Y-69267745D03*
X100127535Y-71807745D03*
X100127535Y-74347745D03*
X84887535Y-74347745D03*
X84887535Y-71807745D03*
X84887535Y-69267745D03*
X84887535Y-66727745D03*
X84887535Y-64187745D03*
X84887535Y-61647745D03*
X84887535Y-59107745D03*
X84887535Y-56567745D03*
X84887535Y-54027745D03*
X84887535Y-51487745D03*
X84887535Y-48947745D03*
X84887535Y-46407745D03*
%TD*%
M02*
